<svg width="27" height="27" viewBox="0 0 27 27" fill="none" xmlns="http://www.w3.org/2000/svg">
<path d="M12.373 3.25461H5.26487C2.90945 3.25461 1 5.164 1 7.51935V21.7353C1 24.0906 2.90945 26 5.26487 26H19.4811C21.8365 26 23.746 24.0906 23.746 21.7353L23.746 14.6273M8.10812 18.892L13.2804 17.8498C13.555 17.7945 13.8071 17.6593 14.0052 17.4612L25.5839 5.87646C26.139 5.32103 26.1387 4.42071 25.583 3.86575L23.1303 1.4158C22.5749 0.86107 21.675 0.861448 21.1201 1.41665L9.54012 13.0026C9.3425 13.2003 9.20756 13.4519 9.15219 13.7259L8.10812 18.892Z" stroke="#A1A1A1" stroke-width="2" stroke-linecap="round" stroke-linejoin="round"/>
</svg>
