<svg width="49" height="53" viewBox="0 0 49 53" fill="none" xmlns="http://www.w3.org/2000/svg">
<circle cx="24.5" cy="28.5" r="24.5" fill="#EBEBEB"/>
<mask id="mask0_92_4810" style="mask-type:alpha" maskUnits="userSpaceOnUse" x="1" y="0" width="48" height="48">
<circle cx="24.9213" cy="23.9213" r="23.9213" fill="#D9D9D9"/>
</mask>
<g mask="url(#mask0_92_4810)">
<path d="M38.0353 43.6706C37.9255 43.749 37.8 43.8275 37.6902 43.9059C37.5647 43.9843 37.4549 44.0628 37.3294 44.1255C37.2196 44.1883 37.1255 44.251 37.0157 44.3137C37 44.3294 36.9843 44.3294 36.9686 44.3451C36.6079 44.5647 36.2314 44.7686 35.8549 44.9569C35.7451 45.0196 35.6196 45.0824 35.5098 45.1294C35.5098 45.1294 35.4941 45.1451 35.4784 45.1451C35.353 45.2079 35.2275 45.2706 35.102 45.3334C34.851 45.4588 34.5843 45.5686 34.3334 45.6785C34.2079 45.7412 34.0667 45.7883 33.9412 45.8353C33.8157 45.8824 33.6745 45.9451 33.549 45.9922C33.4235 46.0392 33.2824 46.102 33.1569 46.149C33.1569 46.149 33.1569 46.149 33.1412 46.149C33.0157 46.1961 32.8745 46.2432 32.749 46.2902C32.4667 46.3843 32.1686 46.4784 31.8863 46.5726C31.7922 46.6039 31.6824 46.6353 31.5883 46.6667C31.2902 46.7608 30.9922 46.8392 30.6941 46.902C30.5843 46.9334 30.4745 46.949 30.349 46.9804C30.0667 47.0432 29.7686 47.1059 29.4863 47.1686C29.4235 47.1843 29.3765 47.1843 29.3137 47.2C29.2196 47.2157 29.1098 47.2314 29.0157 47.2471C28.8745 47.2628 28.749 47.2941 28.6079 47.3098C28.5451 47.3255 28.4824 47.3255 28.4196 47.3412C28.3412 47.3569 28.2471 47.3726 28.153 47.3726C27.902 47.4039 27.6353 47.4353 27.3843 47.4667C27.3059 47.4824 27.2118 47.4824 27.1334 47.4981H27.1177C27.0079 47.5137 26.8981 47.5137 26.7883 47.5294C26.6784 47.5451 26.5686 47.5451 26.4588 47.5451C26.3961 47.5451 26.3177 47.5608 26.2549 47.5608C26.1294 47.5608 26.0196 47.5765 25.9098 47.5765C25.753 47.5765 25.6118 47.5922 25.4549 47.5922C25.2981 47.5922 25.1569 47.5922 25 47.5922C24.8902 47.5922 24.7804 47.5922 24.6706 47.5922C18.051 47.4981 12.1059 44.6902 7.85492 40.2353C7.85492 40.2353 7.85492 40.2196 7.83923 40.2196C7.36864 39.7961 7.77649 37.5373 9.67453 36.1098C12.0588 34.3059 17.7686 33.1765 17.7686 33.1765C17.7686 33.1765 19.9804 32.8157 28.1843 34.5255C32.9843 35.5294 36.6392 36.9883 38.6784 40.9412C39.102 41.7569 39.5255 43.0118 38.0353 43.6706Z" fill="white"/>
<path d="M28.2314 34.3529C31.2432 34.9647 34.4588 35.6235 36.9373 37.6157C37.7687 38.2902 38.3177 39.2784 38.7726 40.2353C38.9922 40.7059 39.2118 41.1922 39.3843 41.7098C39.4785 42.0549 39.6196 42.4471 39.5412 42.8549C39.5255 42.9647 39.4314 43.1059 39.353 43.1843C38.9922 43.5451 38.6 43.7647 38.2079 44.0471C35.902 45.6471 33.251 46.7765 30.5059 47.3726C24.3883 48.7059 17.7687 47.6706 12.3883 44.4549C10.6 43.3726 8.95297 42.0549 7.5412 40.502C7.38434 40.3137 7.38434 40 7.38434 39.7961C7.40002 39.3255 7.52551 38.8706 7.68238 38.4471C8.05885 37.4745 8.54512 36.502 9.3765 35.8275C9.97257 35.4196 10.6157 35.0745 11.2745 34.7922C13.3451 33.9137 15.5255 33.302 17.7687 33.051C17.9569 33.0353 17.9883 33.302 17.8 33.3333C15.651 33.7726 13.5177 34.4314 11.5255 35.3255C10.8039 35.6863 10.0353 36 9.45493 36.5647C8.90591 37.1608 8.51375 37.898 8.20002 38.651C7.9961 39.1059 7.85493 39.8275 7.91767 40.1882C8.90591 41.3647 10.0667 42.4 11.3216 43.2941C18.1922 48.0941 28.6236 48.4079 35.9334 44.4079C36.5922 44.0471 37.2353 43.6392 37.8471 43.2157C38.1451 43.0118 38.4588 42.8392 38.6941 42.6039C38.7098 42.5882 38.6941 42.6039 38.6941 42.6196C38.6941 42.6353 38.6785 42.651 38.6785 42.651C38.6941 42.4628 38.6314 42.2118 38.553 41.9608C38.2706 41.051 37.8157 40.0941 37.3294 39.2628C36.5608 38.0235 35.2588 37.2392 33.9412 36.6118C33.0314 36.1882 32.0745 35.8588 31.102 35.5451C30.1294 35.2314 29.1412 34.9647 28.153 34.7294C27.902 34.6667 27.9804 34.3059 28.2314 34.3529Z" fill="black"/>
<path d="M15.2588 33.6627C15.8078 34.6353 17.8941 38.5411 18.2235 41.9921L20.1686 42.6509C20.1686 42.6509 18.6941 36.1255 16.0588 33.098C16.0588 33.098 15.7451 32.9568 15.3529 33.2235C15.2274 33.3333 15.1647 33.5059 15.2588 33.6627Z" fill="black"/>
<path d="M31.949 42.0392C31.949 42.0392 32.0431 37.6941 30.1607 34.8392C30.1137 34.7608 30.1764 34.651 30.2705 34.6666C30.396 34.698 30.5842 34.7451 30.8823 34.8862C31.3842 35.1215 33.0156 37.6157 33.1568 41.7098C33.1568 41.6941 32.1058 42.0392 31.949 42.0392Z" fill="black"/>
<path d="M37.3137 37.9607C36.498 37.098 34.0352 35.8117 33.6117 35.8431C33.6274 35.8745 33.6274 35.9215 33.6431 35.9686C34.3019 38.3372 33.7686 41.5529 31.3686 42.0862C28.8745 42.6353 26.7882 42.7137 21.7843 42.2117C18.1137 41.8509 14.6627 38.5568 12.9058 35.2941C12.7333 34.9647 12.5294 34.6353 12.3097 34.3372C12.1843 34.2431 11.949 34.2588 11.7764 34.4C11.3372 34.7607 10.7568 34.7294 10.7568 35.0745C10.7568 35.0745 7.43132 36.1098 6.27053 43.4039C5.61171 47.5294 4.68622 52.8784 4.65485 54.698H40.3725C40.1215 52.2509 40.3725 41.349 37.3137 37.9607Z" fill="black"/>
<path d="M37.0157 38.2431C36.5451 37.7725 35.9333 37.4117 35.353 37.0666C34.8196 36.7529 34.1608 36.4078 33.6118 36.2509L33.9726 35.749L33.9882 35.8431C34.4275 37.6784 34.3333 39.8588 33.0628 41.3647C32.6235 41.8666 31.9804 42.2274 31.3216 42.3372C30.0981 42.5882 28.8275 42.7294 27.5726 42.7294C25.3765 42.7137 23.2118 42.5411 21.0471 42.2431C19.5098 41.9137 18.0824 41.1451 16.8431 40.1882C15.102 38.8392 13.7686 37.0666 12.5294 35.2627C12.3569 35.0117 12.153 34.7764 11.9333 34.5725L12.0118 34.6666C12.0431 34.698 12.0588 34.6823 12.0431 34.6823C12.0431 34.6823 12.0118 34.6823 11.9961 34.698C11.9804 34.698 11.9804 34.698 11.9647 34.7294C11.7137 34.949 11.3059 35.0588 11.0549 35.2C11.0706 35.2 11.102 35.1058 11.102 35.0902L10.8196 35.4666L10.7726 35.4823L10.7098 35.5137C8.5608 36.6745 7.5255 39.4353 6.9608 41.6941C6.41178 44.2666 6.08236 46.9176 5.64315 49.5058C5.39217 51.2313 5.07844 53.0039 5.00001 54.7137L4.59217 54.3058H40.3726L39.9804 54.7451C39.651 50.4 39.8235 41.5843 37.0157 38.2431ZM37.6118 37.6941C40.6392 41.2235 40.451 50.0862 40.7804 54.6666C40.7961 54.8862 40.6392 55.0902 40.4196 55.1058C40.4039 55.1372 4.6706 55.0902 4.65491 55.1058C4.43531 55.1058 4.24707 54.9333 4.24707 54.7137C4.27844 53.7882 4.40393 52.8941 4.51374 52.0156C4.87452 49.3804 5.31374 46.7607 5.73727 44.1411C6.00393 42.3843 6.36472 40.5804 7.0706 38.9176C7.77648 37.2705 8.82746 35.5451 10.5216 34.7451C10.553 34.7294 10.5843 34.7137 10.6314 34.698L10.349 35.0745C10.3333 34.5255 10.9294 34.3843 11.3059 34.2274C11.5569 34.0862 11.7608 33.8823 12.0745 33.8823C12.2314 33.8666 12.5137 33.9294 12.6392 34.1176C12.8588 34.5568 13.0471 34.996 13.2353 35.4353C13.549 36.1411 13.9569 36.8 14.4275 37.4117C16.1216 39.5607 18.4118 41.4431 21.1412 41.9921C22.051 42.149 22.9922 42.1804 23.902 42.2588C26.3647 42.4313 28.8432 42.4627 31.2432 41.8666C31.8079 41.7411 32.2941 41.4431 32.6549 41.0039C33.7216 39.6549 33.7216 37.6784 33.251 36.0784L33.2196 35.9529C33.1412 35.7176 33.3294 35.4509 33.5804 35.4509C34.0353 35.4666 34.3804 35.6862 34.7882 35.8588C35.7922 36.3607 36.7804 36.8941 37.6118 37.6941Z" fill="black"/>
<path d="M32.3255 43.7804C29.753 44.8784 21.2981 45.1294 17 42.8078C14.2863 41.349 12.5294 38.1333 11.6824 36.8941C11.0549 35.9529 10.7412 35.0745 10.7412 35.0745C10.7412 34.7294 11.3373 34.7608 11.7608 34.4C11.9334 34.2588 12.1687 34.2431 12.2942 34.3372C12.5138 34.651 12.7177 34.9647 12.8902 35.2941C14.6471 38.5412 17.4236 41.8039 21.7687 42.2118C26.7726 42.6823 28.8589 42.6353 31.353 42.0863C33.753 41.5529 34.2863 38.3372 33.6275 35.9686C33.6118 35.9372 33.6118 35.8902 33.5961 35.8431C34.0196 35.8118 34.8353 35.8902 35.1334 36.6431C35.1491 36.6431 36.3569 42.0706 32.3255 43.7804Z" fill="white"/>
<path d="M32.4196 44C31.3843 44.4235 30.302 44.5804 29.2196 44.7059C28.1373 44.8313 27.0549 44.8784 25.9725 44.8784C23.2588 44.847 20.498 44.5961 17.9412 43.6235C15.0235 42.5725 13.1412 39.9215 11.5725 37.4117C11.102 36.7215 10.6627 36.0157 10.3961 35.2157C10.3176 35.0117 10.4431 34.7294 10.6157 34.6039C10.851 34.4157 11.1176 34.4157 11.3529 34.3215C11.5098 34.2745 11.6039 34.1804 11.7451 34.1019C11.9961 33.9921 12.2784 33.898 12.5922 34.0392C14.3961 37.9764 17.3608 41.7412 22.0039 42.0706C25.0784 42.3529 28.2157 42.6666 31.2588 41.9608C32.4824 41.7568 33.2824 40.6588 33.5647 39.498C33.8784 38.3215 33.7843 37.051 33.4549 35.8902C33.4235 35.7804 33.502 35.6706 33.6118 35.6706C34.2863 35.6078 35.1176 35.9059 35.3529 36.6117C35.6196 38.0235 35.6196 39.4666 35.2118 40.8313C34.8039 42.2274 33.7686 43.451 32.4196 44ZM32.2314 43.5608C33.4863 43.0588 34.4118 41.9921 34.8353 40.7215C35.2588 39.4353 35.3059 38.0078 35.0392 36.6745C34.851 36.1568 34.1922 35.9372 33.6275 36.0157L33.7843 35.7961C34.3176 37.8039 34.2078 40.6902 32.2157 41.898C31.9333 42.0549 31.6196 42.1647 31.3059 42.2274C30.6941 42.3529 30.0667 42.4627 29.4549 42.5412C26.9608 42.8078 24.451 42.6039 21.9725 42.4C17.7216 42.1804 14.4431 38.8392 12.6235 35.2313C12.498 34.949 12.3569 34.6823 12.2157 34.4L12.2471 34.4313C12.0118 34.2902 11.7608 34.6196 11.5412 34.698C11.3373 34.8078 11.1176 34.8549 10.9451 34.9647C10.9137 34.9961 10.898 35.0274 10.898 35.0745V35.0274C11.2588 36.0157 11.9176 36.9098 12.4824 37.7882C13.9098 39.9843 15.6353 42.1961 18.1765 43.1059C21.7216 44.5176 28.5922 44.8627 32.2314 43.5608Z" fill="black"/>
<path d="M29.7057 38.5255C29.3763 40.1412 27.243 41.1137 23.6508 39.6549C19.9175 38.149 18.3018 34.5569 17.894 33.4902C20.1057 29.349 18.5685 26.4784 18.5685 26.4784C23.6665 26.0392 28.1214 32 28.1214 32L28.8116 34.949C28.8744 35.2 28.9999 35.4196 29.1881 35.5765C29.5175 36.1569 29.9097 37.4902 29.7057 38.5255Z" fill="white"/>
<path d="M17.8156 33.5372C18.1137 33.0823 18.3019 32.549 18.4274 32.0314C18.6627 30.949 18.7411 29.851 18.7568 28.7529V28.3451C18.7097 27.9372 18.5686 27.5137 18.4117 27.1372C18.2078 26.6353 18.945 26.3216 19.1803 26.8235C19.2117 26.8863 19.2117 26.9961 19.2117 27.0588C19.2588 29.1921 19.3529 31.9372 18.0039 33.7098C17.9097 33.8039 17.7215 33.6627 17.8156 33.5372Z" fill="black"/>
<path d="M28.294 31.9686C28.5293 32.1098 28.6078 32.2981 28.6391 32.4863C28.7333 32.8628 28.7019 33.2706 28.796 33.6628C28.8744 34.0392 29.1097 34.4 29.1725 34.7922C29.2509 35.2 29.4862 36.0628 29.5803 36.4863C29.6117 36.5804 29.5489 36.6902 29.4391 36.7059C29.3764 36.7216 29.3293 36.7059 29.2823 36.6745C29.0784 36.502 28.9842 36.3294 28.8587 36.1098C28.6548 35.7334 28.5136 35.3883 28.3882 34.9647C28.2784 34.5883 28.3254 34.1804 28.2313 33.7883C28.1529 33.4118 27.9333 33.051 27.8548 32.6588C27.8078 32.4706 27.7921 32.2667 27.9333 32.0314C28.0274 31.9373 28.1842 31.9059 28.294 31.9686Z" fill="black"/>
<path d="M29.4235 36.1098C26.4274 35.9529 23.9803 35.0118 21.596 30.7608C23.6039 32.5333 25.9725 33.2078 28.4666 33.5216L28.796 34.9647C28.8588 35.2157 29.2352 35.9529 29.4235 36.1098Z" fill="black"/>
<path d="M29.2981 35.5294C29.8314 36.5333 30.1451 37.7882 29.8157 38.902C29.5647 39.6863 28.8432 40.2667 28.0589 40.4863C26.2392 40.9726 24.1373 40.2039 22.5216 39.3412C20.5294 38.2275 19.0549 36.3608 18.1138 34.3216C18.051 34.1647 18.2706 34.0392 18.3647 34.1961C18.6942 34.8549 19.0706 35.498 19.4942 36.0784C19.9177 36.6745 20.404 37.2235 20.953 37.7098C22.553 39.1529 24.7177 40.0471 26.8824 40.0471C29.1098 39.9843 29.9569 38.8078 29.4392 36.6431C29.3608 36.298 29.2353 35.9373 29.0628 35.6392C28.9687 35.5137 29.204 35.3725 29.2981 35.5294Z" fill="black"/>
<path d="M35.3685 16.6902C35.6509 18.0079 34.7097 19.4196 34.7097 22.9333C34.7097 26.5255 34.0509 30.4314 31.3372 33.1451C28.9999 35.4824 26.3175 35.3882 23.1646 32.9255C22.7254 32.5804 21.1881 31.4196 20.796 31.0275C20.3411 30.5726 20.0901 30.2431 19.8705 29.898C19.6823 29.5843 19.7293 27.7647 19.4626 27.3412C18.7724 26.1961 18.6313 27.4353 17.7372 26.4314C16.4979 25.0824 15.0077 22.3686 15.745 17.5686C16.9372 9.78825 23.1019 8.87844 27.6666 9.74119C32.2626 10.6196 34.6156 13.2235 35.3685 16.6902Z" fill="white"/>
<path d="M18.5215 27.8275C18.1607 27.2314 17.7058 26.698 17.2823 26.149C16.8587 25.5686 16.5136 24.9569 16.2313 24.298C14.6313 20.4235 14.8666 15.3569 17.7058 12.0941C19.6509 9.86667 22.7254 9.12941 25.5489 9.28628C28.3725 9.45882 31.3058 10.1804 33.3921 12.2196C34.5999 13.3961 35.3685 14.9647 35.7136 16.5961C35.8234 17.1137 35.745 17.6784 35.6195 18.1647C35.2587 19.5294 34.9136 20.8314 34.8823 22.2431C34.898 24.3451 34.8352 26.4941 34.2234 28.5177C33.7842 29.8667 33.2666 31.2157 32.4509 32.3922C31.6038 33.5843 30.3332 34.5412 28.8744 34.8235C25.9411 35.4196 23.196 33.5686 21.2509 31.5608C21.1725 31.4667 21.2823 31.3569 21.3764 31.4196C22.4901 32.2667 23.6352 33.051 24.8744 33.5843C28.4509 35.2314 31.4156 33.7098 32.9842 30.2588C34.3019 27.749 34.6783 25.0353 34.5685 22.2275C34.5685 21.5216 34.5999 20.8157 34.694 20.1098C34.7882 19.0902 35.1333 18.0706 35.1176 17.0667C34.8509 15.4353 34.098 13.8667 32.9685 12.6588C30.2862 9.81961 25.1411 8.98824 21.5332 10.2745C17.2823 11.7804 16.1372 16.0627 15.9019 20.1569C15.745 22.6039 16.4666 25.0039 18.3176 26.6824L19.0548 27.451C19.3058 27.7961 18.7725 28.2039 18.5215 27.8275Z" fill="black"/>
<path d="M20.3725 22.8392C20.3725 22.8392 19.8862 20.4863 17.596 20.7686C15.6195 21.0196 14.9293 25.7569 19.4156 27.0745" fill="white"/>
<path d="M19.2117 25.0196C18.8509 24.8157 18.5999 24.4706 18.5842 24.047C18.5999 23.7333 18.647 23.3725 18.5685 23.0588C18.5215 22.7608 18.2078 22.6823 17.9725 22.698C17.7215 22.7451 17.5646 23.0588 17.5176 23.3098C17.5176 23.3255 17.5019 23.3725 17.5019 23.3882C17.4862 23.4667 17.3607 23.4667 17.3293 23.3882C17.1254 22.7765 17.5803 22.1019 18.2391 22.1804C19.1646 22.2431 19.2901 23.2157 19.1176 23.9529C19.0234 24.2667 19.1489 24.549 19.3215 24.8157L19.3529 24.8627C19.4313 24.9569 19.3058 25.0823 19.2117 25.0196Z" fill="black"/>
<path d="M31.7607 21.1765C31.996 22.2902 32.4352 23.3255 32.9842 24.298C33.4705 25.4902 32.2156 26.6196 31.1019 26.5725C30.9764 26.5725 30.9607 26.4 31.0705 26.3686C31.7764 26.149 32.4195 25.6784 32.5293 24.9569C32.5764 24.7373 32.5136 24.549 32.4038 24.3608C31.8862 23.3882 31.5725 22.2745 31.6509 21.1765C31.6509 21.098 31.7607 21.098 31.7607 21.1765Z" fill="black"/>
<path d="M20.2941 22.8549C19.9333 21.9294 19.149 21.051 18.098 21.0667C18.0039 21.051 17.8471 21.0823 17.7529 21.0823C17.4863 21.098 17.2667 21.1921 17.0627 21.3804C16.0588 22.3843 16.2314 24.1569 17.0471 25.2706C17.3294 25.6627 17.6902 26.0078 18.098 26.2902C18.5059 26.5725 18.9608 26.7921 19.4471 26.9804C19.5569 27.0118 19.5098 27.1843 19.4 27.1686C18.349 26.949 17.3451 26.4314 16.6549 25.5686C15.5882 24.2823 15.3686 22.1333 16.6392 20.8784C16.9216 20.6274 17.3137 20.4392 17.7059 20.4392C17.8314 20.4392 18.0196 20.4078 18.1451 20.4392C18.8039 20.4706 19.4314 20.8 19.8392 21.3176C20.2 21.7569 20.4039 22.2902 20.4667 22.8235C20.4667 22.9176 20.3255 22.949 20.2941 22.8549Z" fill="black"/>
<path d="M30.2078 28.0784C30.2234 28.3294 30.0352 28.7686 29.6901 29.0823C27.9176 28 27.1176 28.5647 27.1176 28.5647C26.4901 27.6078 26.6313 26.3059 28.1529 27.2941C29.2038 27.9843 29.8627 28.0941 30.2078 28.0784Z" fill="black"/>
<path d="M29.6744 29.098C29.2979 29.4274 28.7332 29.6314 27.9646 29.3176C27.6038 29.1765 27.3215 28.8941 27.1019 28.5804C27.1176 28.5804 27.9019 28.0157 29.6744 29.098Z" fill="white"/>
<path d="M30.5058 28.0313C30.5058 28.0313 29.847 28.3921 28.1528 27.3098C26.1293 26.0078 26.5372 28.7372 27.9646 29.3176C29.4548 29.9294 30.2234 28.5961 30.2077 28.0941" stroke="black" stroke-width="3" stroke-miterlimit="10" stroke-linecap="round" stroke-linejoin="round"/>
<path d="M27.1176 28.5804C27.1176 28.5804 27.9176 28.0157 29.6902 29.098" stroke="black" stroke-width="3" stroke-miterlimit="10" stroke-linecap="round" stroke-linejoin="round"/>
<path d="M28.3255 19.1372C28.6706 19.1059 28.8431 18.698 28.6549 18.3843C28.5451 18.2274 28.4039 18.0862 28.2 18.0078C27.6039 17.8196 25.6588 18.2431 24.8117 19.2157C24.0588 20.1098 26.7568 19.2784 28.3255 19.1372Z" fill="black"/>
<path d="M32.4667 19.3882C32.2 19.3098 32.1216 18.9176 32.3412 18.6666C32.451 18.5411 32.6079 18.4313 32.7804 18.4C33.3137 18.3058 34.5373 18.7921 34.8824 19.7176C35.1961 20.5176 33.7373 19.7019 32.4667 19.3882Z" fill="black"/>
<path d="M25.9099 22.7765C25.5334 22.7608 25.251 22.447 25.2824 22.0706L25.2981 21.6314C25.3138 21.2549 25.6275 20.9725 26.004 21.0039C26.3804 21.0196 26.6628 21.3333 26.6314 21.7098L26.6157 22.149C26.6001 22.5098 26.2863 22.7921 25.9099 22.7765Z" fill="black"/>
<path d="M32.5137 23.0117C32.1686 22.996 31.902 22.698 31.9177 22.3529L31.9333 21.9451C31.949 21.6 32.2471 21.3333 32.5922 21.349C32.9373 21.3647 33.2039 21.6627 33.1882 22.0078L33.1726 22.4157C33.1569 22.7607 32.8588 23.0274 32.5137 23.0117Z" fill="black"/>
<path d="M27.3216 21.9294C26.8039 21.5843 26.2392 21.349 25.6118 21.4745C25.4078 21.5058 25.2039 21.5686 25.0784 21.7098C25.0314 21.7725 24.9216 21.7568 24.9216 21.6627C24.9373 21.349 25.2039 21.1451 25.4549 21.0196C25.9412 20.7686 26.6157 20.8156 27.0549 21.1451C27.2118 21.2392 27.7451 21.8196 27.4627 21.9451C27.4 21.9764 27.3686 21.9607 27.3216 21.9294Z" fill="black"/>
<path d="M31.8077 22.0078C31.8077 21.349 32.6234 21.1137 33.1254 21.349C33.4077 21.4745 33.6117 21.7255 33.6901 22.0235C33.7215 22.1176 33.5803 22.1961 33.5175 22.1176C33.2509 21.8039 32.796 21.647 32.4352 21.8353C32.3254 21.898 32.3097 21.9451 32.2783 22.0078C32.2783 22.3215 31.8234 22.3059 31.8077 22.0078Z" fill="black"/>
<path d="M35.4123 21.1921C35.428 21.1137 35.4437 21.0352 35.4437 20.9568C35.6005 19.9686 35.7103 19.0587 35.7731 18.196C35.8986 16.4391 35.5692 13.2705 33.0437 11.3725C32.8241 11.1999 32.5888 11.0431 32.3221 10.9019C32.1025 10.7764 31.8672 10.6666 31.6319 10.5568C29.577 9.67836 26.2672 8.62738 22.9888 9.19208C21.7339 9.396 20.479 9.85091 19.3025 10.6195C19.2868 10.6195 19.2868 10.6352 19.2868 10.6352C16.4319 12.5176 15.428 15.498 14.8947 18.3058C14.7221 19.1999 14.5966 20.094 14.4868 20.9097C14.4241 21.3333 14.3613 21.7411 14.2986 22.1176C14.0633 23.545 13.279 24.8156 12.4476 25.8195C12.4005 25.8666 12.3535 25.9293 12.3064 25.9764C11.6319 26.745 10.9574 27.3568 10.4868 27.7176C10.4554 27.7333 10.4241 27.7646 10.4084 27.7803C11.4437 31.0431 15.3966 33.4901 19.0515 34.2274C19.5849 31.8901 19.9456 29.5215 19.4907 27.0901C19.3652 27.0431 19.3025 26.996 19.3025 26.9646C14.9731 25.5999 15.6633 20.9568 17.6241 20.7058C18.33 20.6117 18.8476 20.7842 19.2554 21.0352C19.8045 21.4431 20.4005 22.4627 20.4005 22.7607C20.4319 22.0705 20.73 21.1137 21.0907 21.0823C21.4672 21.0509 21.8437 20.9725 22.2045 20.8313C24.0084 20.2038 25.6554 18.5097 27.1143 17.0038C29.1221 14.9333 30.7535 13.1764 31.9143 14.9176C31.977 15.0117 32.0398 15.1058 32.0868 15.1999C33.4672 15.1686 34.1103 15.9686 34.4398 16.7999C34.4398 16.7999 34.4398 16.7999 34.4398 16.8156C34.7064 17.5215 34.7378 18.2431 34.7692 18.4313C34.7692 18.4627 34.7692 18.4784 34.7849 18.4784C34.7535 19.1058 34.6751 20.1725 34.6594 21.5529C34.6594 22.1803 34.7221 23.4352 34.6751 24.1568C34.6594 24.3764 34.6437 24.596 34.628 24.7999C34.6123 24.9097 34.6123 25.0195 34.5966 25.1137C34.5809 25.2078 34.5809 25.3176 34.5652 25.4274C34.5496 25.5842 34.5339 25.7411 34.5182 25.9137C34.5025 26.0548 34.4868 26.196 34.4711 26.3372V26.3529C34.4554 26.4627 34.4398 26.5568 34.4241 26.6509C34.1888 27.9058 33.828 29.2391 33.3103 30.0391C32.2751 31.6548 31.4594 33.0195 29.9692 33.7097C28.4947 34.3842 26.8162 34.5254 26.8162 34.5254C26.8162 34.5254 27.2868 34.8235 28.4005 34.8862C29.4986 34.9489 30.3143 34.6195 31.13 34.7607C32.8711 35.0588 35.93 35.0588 35.93 35.0588C38.2202 29.0352 34.3456 28.7529 35.4123 21.1921Z" fill="black"/>
<path d="M23.1961 25.8823C23.6353 25.6471 24.0588 25.3961 24.5451 25.2706C24.5921 25.2706 24.6235 25.2549 24.7176 25.2863C25.047 25.5372 24.0902 26.1647 23.9176 26.3216C23.9647 26.2588 23.949 26.149 23.8706 26.1176C23.8549 26.1176 23.8549 26.102 23.8392 26.102C23.8078 26.102 23.8078 26.102 23.8078 26.102C24.2 25.9608 24.5921 25.8039 24.9686 25.6157C25.1882 25.5216 25.4863 25.3176 25.7215 25.302C25.8157 25.302 25.9255 25.3961 25.9098 25.4902C25.8941 25.6157 25.8627 25.6627 25.8314 25.7412C25.8 25.8039 25.7372 25.898 25.7215 25.9608C25.7215 25.9765 25.7059 25.9451 25.7059 25.9451C25.7059 25.9608 25.8 25.9608 25.8157 25.9451C26.0666 25.9137 26.3333 25.8196 26.5843 25.7255C26.6314 25.7098 26.6627 25.7725 26.6157 25.8039C26.349 25.9765 26.0666 26.1647 25.7215 26.1961C25.5019 26.2118 25.3921 26.0078 25.4706 25.8196C25.5019 25.7098 25.5804 25.5843 25.6117 25.4902C25.6117 25.5216 25.6431 25.5686 25.6745 25.5843C25.7059 25.6 25.7215 25.5843 25.7059 25.6C25.549 25.6471 25.2353 25.8196 25.0941 25.8823C24.6863 26.0706 24.2941 26.2431 23.8549 26.3686C23.8235 26.3686 23.8235 26.3843 23.7764 26.3686C23.651 26.3529 23.6196 26.1961 23.7137 26.1176C23.9019 25.9608 24.1215 25.8353 24.2941 25.6784C24.3882 25.6 24.498 25.4902 24.5608 25.3961C24.5608 25.4118 24.5764 25.4431 24.5921 25.4588C24.451 25.4745 24.1686 25.5529 23.9961 25.6314C23.7451 25.7255 23.4784 25.8353 23.2274 25.9451C23.1961 25.9765 23.149 25.898 23.1961 25.8823Z" fill="black"/>
<path d="M33.3608 25.8823C33.5019 25.7255 34.098 24.9725 34.2549 25.3647C34.2549 25.3961 34.2549 25.4274 34.2549 25.4431C34.1921 25.7569 33.9882 26.0235 33.8313 26.2902C33.8627 26.2118 33.8 26.1019 33.7215 26.0863C33.6902 26.0863 33.6745 26.0863 33.6588 26.0863C33.6431 26.0863 33.6588 26.0863 33.6745 26.0706C33.9882 25.8667 34.2235 25.6157 34.5372 25.3961C34.6 25.3647 34.6784 25.3176 34.7568 25.3647C34.8353 25.4274 34.8196 25.5216 34.7882 25.5843C34.7568 25.6627 34.7255 25.7255 34.6941 25.8039C34.6784 25.8196 34.6627 25.8353 34.6313 25.8196C34.6157 25.8196 34.6157 25.8039 34.6157 25.7882C34.6157 25.7568 34.6157 25.5529 34.6157 25.5216C34.6157 25.5059 34.6 25.4902 34.6157 25.5216C34.6157 25.5372 34.647 25.5686 34.6784 25.5686C34.6941 25.5686 34.7255 25.5686 34.7255 25.5686C34.4588 25.8823 34.1451 26.1804 33.7843 26.3843C33.6745 26.4314 33.549 26.3372 33.5647 26.2118C33.5647 26.1961 33.5804 26.1647 33.596 26.149C33.7059 25.9921 33.8313 25.8353 33.9255 25.6784C33.9725 25.6 34.0353 25.4902 34.0509 25.4118C34.0509 25.4431 34.1137 25.4902 34.1294 25.4745C33.8784 25.5686 33.6588 25.7725 33.4392 25.9294C33.3764 25.9765 33.3294 25.9137 33.3608 25.8823Z" fill="black"/>
</g>
</svg>
