<svg width="172" height="186" viewBox="0 0 172 186" fill="none" xmlns="http://www.w3.org/2000/svg">
<circle cx="86.25" cy="99.75" r="85.75" fill="#EBEBEB"/>
<mask id="mask0_64_1577" style="mask-type:alpha" maskUnits="userSpaceOnUse" x="4" y="0" width="168" height="168">
<circle cx="87.7246" cy="83.7246" r="83.7246" fill="#D9D9D9"/>
</mask>
<g mask="url(#mask0_64_1577)">
<path d="M133.624 152.847C133.239 153.122 132.8 153.396 132.416 153.671C131.977 153.945 131.592 154.22 131.153 154.439C130.769 154.659 130.439 154.878 130.055 155.098C130 155.153 129.945 155.153 129.89 155.208C128.628 155.977 127.31 156.69 125.992 157.349C125.608 157.569 125.169 157.788 124.785 157.953C124.785 157.953 124.73 158.008 124.675 158.008C124.236 158.227 123.796 158.447 123.357 158.667C122.479 159.106 121.545 159.49 120.667 159.875C120.228 160.094 119.734 160.259 119.294 160.424C118.855 160.588 118.361 160.808 117.922 160.973C117.483 161.137 116.988 161.357 116.549 161.522C116.549 161.522 116.549 161.522 116.494 161.522C116.055 161.686 115.561 161.851 115.122 162.016C114.134 162.345 113.09 162.675 112.102 163.004C111.773 163.114 111.388 163.224 111.059 163.333C110.016 163.663 108.973 163.937 107.93 164.157C107.545 164.267 107.161 164.322 106.722 164.431C105.734 164.651 104.69 164.871 103.702 165.09C103.483 165.145 103.318 165.145 103.098 165.2C102.769 165.255 102.385 165.31 102.055 165.365C101.561 165.42 101.122 165.529 100.628 165.584C100.408 165.639 100.188 165.639 99.9689 165.694C99.6944 165.749 99.365 165.804 99.0355 165.804C98.1571 165.914 97.2238 166.024 96.3453 166.133C96.0708 166.188 95.7414 166.188 95.4669 166.243H95.412C95.0277 166.298 94.6434 166.298 94.2591 166.353C93.8748 166.408 93.4904 166.408 93.1061 166.408C92.8865 166.408 92.612 166.463 92.3924 166.463C91.9532 166.463 91.5689 166.518 91.1846 166.518C90.6355 166.518 90.1414 166.573 89.5924 166.573C89.0434 166.573 88.5493 166.573 88.0002 166.573C87.6159 166.573 87.2316 166.573 86.8473 166.573C63.6787 166.243 42.8708 156.416 27.9924 140.824C27.9924 140.824 27.9924 140.769 27.9375 140.769C26.2904 139.286 27.7179 131.38 34.361 126.384C42.7061 120.071 62.6904 116.118 62.6904 116.118C62.6904 116.118 70.4316 114.855 99.1453 120.839C115.945 124.353 128.738 129.459 135.875 143.294C137.357 146.149 138.839 150.541 133.624 152.847Z" fill="white"/>
<path d="M99.3099 120.235C109.851 122.376 121.106 124.682 129.781 131.655C132.69 134.016 134.612 137.475 136.204 140.824C136.973 142.471 137.741 144.173 138.345 145.984C138.675 147.192 139.169 148.565 138.894 149.992C138.839 150.377 138.51 150.871 138.235 151.145C136.973 152.408 135.6 153.176 134.228 154.165C126.157 159.765 116.879 163.718 107.271 165.804C85.8589 170.471 62.6903 166.847 43.8589 155.592C37.6001 151.804 31.8354 147.192 26.8942 141.757C26.3452 141.098 26.3452 140 26.3452 139.286C26.4001 137.639 26.8393 136.047 27.3884 134.565C28.706 131.161 30.408 127.757 33.3178 125.396C35.404 123.969 37.655 122.761 39.9609 121.773C47.208 118.698 54.8393 116.557 62.6903 115.678C63.3491 115.624 63.4589 116.557 62.8001 116.667C55.2785 118.204 47.8119 120.51 40.8393 123.639C38.3138 124.902 35.6236 126 33.5923 127.976C31.6707 130.063 30.2982 132.643 29.2001 135.278C28.4864 136.871 27.9923 139.396 28.2119 140.659C31.6707 144.777 35.7335 148.4 40.1256 151.529C64.1727 168.329 100.682 169.427 126.267 155.427C128.573 154.165 130.824 152.737 132.965 151.255C134.008 150.541 135.106 149.937 135.93 149.114C135.984 149.059 135.93 149.114 135.93 149.169C135.93 149.224 135.875 149.278 135.875 149.278C135.93 148.62 135.71 147.741 135.435 146.863C134.447 143.678 132.855 140.329 131.153 137.42C128.463 133.082 123.906 130.337 119.294 128.141C116.11 126.659 112.761 125.506 109.357 124.408C105.953 123.31 102.494 122.376 99.0354 121.553C98.157 121.333 98.4315 120.071 99.3099 120.235Z" fill="black"/>
<path d="M53.9062 117.819C55.8277 121.223 63.1297 134.894 64.2826 146.972L71.0905 149.278C71.0905 149.278 65.9297 126.439 56.7062 115.843C56.7062 115.843 55.6081 115.349 54.2356 116.282C53.7964 116.667 53.5768 117.27 53.9062 117.819Z" fill="black"/>
<path d="M112.322 147.137C112.322 147.137 112.651 131.929 106.063 121.937C105.898 121.663 106.118 121.278 106.447 121.333C106.886 121.443 107.545 121.608 108.588 122.102C110.345 122.925 116.055 131.655 116.549 145.984C116.549 145.929 112.871 147.137 112.322 147.137Z" fill="black"/>
<path d="M131.098 132.863C128.243 129.843 119.623 125.341 118.141 125.451C118.196 125.561 118.196 125.725 118.251 125.89C120.557 134.18 118.69 145.435 110.29 147.302C101.561 149.223 94.2587 149.498 76.7449 147.741C63.8979 146.478 51.8194 134.949 45.6704 123.529C45.0665 122.376 44.3528 121.223 43.5842 120.18C43.1449 119.851 42.3214 119.906 41.7175 120.4C40.1802 121.663 38.1489 121.553 38.1489 122.761C38.1489 122.761 26.5096 126.384 22.4469 151.914C20.141 166.353 16.9018 185.074 16.792 191.443H141.804C140.925 182.878 141.804 144.721 131.098 132.863Z" fill="black"/>
<path d="M130.055 133.851C128.408 132.204 126.267 130.941 124.235 129.733C122.369 128.635 120.063 127.427 118.141 126.878L119.404 125.121L119.459 125.451C120.996 131.874 120.667 139.506 116.22 144.776C114.682 146.533 112.431 147.796 110.126 148.18C105.843 149.059 101.396 149.553 97.004 149.553C89.3177 149.498 81.7412 148.894 74.1647 147.851C68.7844 146.698 63.7883 144.008 59.451 140.659C53.3569 135.937 48.6902 129.733 44.353 123.419C43.7491 122.541 43.0353 121.718 42.2667 121.004L42.5412 121.333C42.651 121.443 42.7059 121.388 42.651 121.388C42.651 121.388 42.5412 121.388 42.4863 121.443C42.4314 121.443 42.4314 121.443 42.3765 121.553C41.4981 122.321 40.0706 122.706 39.1922 123.2C39.2471 123.2 39.3569 122.87 39.3569 122.816L38.3687 124.133L38.204 124.188L37.9844 124.298C30.4628 128.361 26.8393 138.023 24.8628 145.929C22.9412 154.933 21.7883 164.212 20.251 173.27C19.3726 179.31 18.2745 185.514 18 191.498L16.5726 190.07H141.804L140.431 191.608C139.278 176.4 139.882 145.545 130.055 133.851ZM132.141 131.929C142.737 144.282 142.078 175.302 143.231 191.333C143.286 192.102 142.737 192.816 141.969 192.87C141.914 192.98 16.8471 192.816 16.7922 192.87C16.0236 192.87 15.3647 192.267 15.3647 191.498C15.4746 188.259 15.9138 185.129 16.2981 182.055C17.5608 172.831 19.0981 163.663 20.5804 154.494C21.5138 148.345 22.7765 142.031 25.2471 136.212C27.7177 130.447 31.3961 124.408 37.3255 121.608C37.4353 121.553 37.5451 121.498 37.7098 121.443L36.7216 122.761C36.6667 120.839 38.753 120.345 40.0706 119.796C40.9491 119.302 41.6628 118.588 42.7608 118.588C43.3098 118.533 44.2981 118.753 44.7373 119.412C45.5059 120.949 46.1647 122.486 46.8236 124.023C47.9216 126.494 49.3491 128.8 50.9961 130.941C56.9255 138.463 64.9412 145.051 74.4942 146.972C77.6785 147.521 80.9726 147.631 84.1569 147.906C92.7765 148.51 101.451 148.619 109.851 146.533C111.827 146.094 113.529 145.051 114.792 143.514C118.526 138.792 118.526 131.874 116.878 126.274L116.769 125.835C116.494 125.012 117.153 124.078 118.031 124.078C119.624 124.133 120.831 124.902 122.259 125.506C125.773 127.263 129.231 129.129 132.141 131.929Z" fill="black"/>
<path d="M113.639 153.231C104.635 157.074 75.0433 157.953 60.0001 149.827C50.5021 144.722 44.3531 133.467 41.3884 129.129C39.1923 125.835 38.0942 122.761 38.0942 122.761C38.0942 121.553 40.1805 121.663 41.6629 120.4C42.2668 119.906 43.0903 119.851 43.5295 120.18C44.2982 121.278 45.0119 122.376 45.6158 123.529C51.7648 134.894 61.4825 146.314 76.6903 147.741C94.204 149.388 101.506 149.223 110.235 147.302C118.635 145.435 120.502 134.18 118.196 125.89C118.141 125.78 118.141 125.616 118.086 125.451C119.569 125.341 122.424 125.616 123.467 128.251C123.522 128.251 127.749 147.247 113.639 153.231Z" fill="white"/>
<path d="M113.969 154C110.345 155.482 106.557 156.031 102.769 156.47C98.9805 156.91 95.1922 157.074 91.404 157.074C81.9059 156.965 72.2432 156.086 63.2942 152.682C53.0824 149.004 46.4942 139.725 41.004 130.941C39.3569 128.525 37.8197 126.055 36.8863 123.255C36.6118 122.541 37.051 121.553 37.655 121.114C38.4785 120.455 39.4118 120.455 40.2354 120.125C40.7844 119.961 41.1138 119.631 41.6079 119.357C42.4863 118.972 43.4746 118.643 44.5726 119.137C50.8863 132.918 61.2628 146.094 77.5138 147.247C88.2746 148.235 99.255 149.333 109.906 146.863C114.188 146.149 116.988 142.306 117.977 138.243C119.075 134.125 118.745 129.678 117.592 125.616C117.482 125.231 117.757 124.847 118.141 124.847C120.502 124.627 123.412 125.67 124.235 128.141C125.169 133.082 125.169 138.133 123.741 142.91C122.314 147.796 118.69 152.078 113.969 154ZM113.31 152.463C117.702 150.706 120.941 146.972 122.424 142.525C123.906 138.023 124.071 133.027 123.137 128.361C122.479 126.549 120.173 125.78 118.196 126.055L118.745 125.286C120.612 132.314 120.228 142.416 113.255 146.643C112.267 147.192 111.169 147.576 110.071 147.796C107.929 148.235 105.733 148.619 103.592 148.894C94.8628 149.827 86.0785 149.114 77.404 148.4C62.5256 147.631 51.051 135.937 44.6824 123.31C44.2432 122.321 43.7491 121.388 43.255 120.4L43.3648 120.51C42.5412 120.016 41.6628 121.168 40.8942 121.443C40.1805 121.827 39.4118 121.992 38.8079 122.376C38.6981 122.486 38.6432 122.596 38.6432 122.761V122.596C39.9059 126.055 42.2118 129.184 44.1883 132.259C49.1844 139.945 55.2236 147.686 64.1177 150.87C76.5256 155.812 100.573 157.019 113.31 152.463Z" fill="black"/>
<path d="M104.471 134.839C103.318 140.494 95.851 143.898 83.2784 138.792C70.2117 133.522 64.5568 120.949 63.1294 117.216C70.8706 102.722 65.4902 92.6745 65.4902 92.6745C83.3333 91.1372 98.9255 112 98.9255 112L101.341 122.322C101.561 123.2 102 123.969 102.659 124.518C103.812 126.549 105.184 131.216 104.471 134.839Z" fill="white"/>
<path d="M62.8549 117.38C63.8981 115.788 64.5569 113.922 64.9961 112.11C65.8196 108.322 66.0941 104.478 66.149 100.635V99.2078C65.9843 97.7803 65.4902 96.298 64.9412 94.9803C64.2275 93.2235 66.8079 92.1254 67.6314 93.8823C67.7412 94.1019 67.7412 94.4862 67.7412 94.7058C67.9059 102.172 68.2353 111.78 63.5137 117.984C63.1843 118.314 62.5255 117.82 62.8549 117.38Z" fill="black"/>
<path d="M99.5292 111.89C100.353 112.384 100.627 113.043 100.737 113.702C101.066 115.02 100.957 116.447 101.286 117.82C101.561 119.137 102.384 120.4 102.604 121.773C102.878 123.2 103.702 126.22 104.031 127.702C104.141 128.031 103.921 128.416 103.537 128.471C103.317 128.525 103.153 128.471 102.988 128.361C102.274 127.757 101.945 127.153 101.506 126.384C100.792 125.067 100.298 123.859 99.8586 122.376C99.4743 121.059 99.639 119.631 99.3096 118.259C99.0351 116.941 98.2665 115.678 97.9919 114.306C97.8272 113.647 97.7723 112.933 98.2665 112.11C98.5959 111.78 99.1449 111.671 99.5292 111.89Z" fill="black"/>
<path d="M103.483 126.384C92.9962 125.835 84.4315 122.541 76.0864 107.663C83.1139 113.867 91.4041 116.227 100.133 117.325L101.286 122.376C101.506 123.255 102.824 125.835 103.483 126.384Z" fill="black"/>
<path d="M103.043 124.353C104.91 127.867 106.008 132.259 104.855 136.157C103.977 138.902 101.451 140.933 98.7061 141.702C92.3374 143.404 84.9806 140.714 79.3257 137.694C72.3531 133.796 67.1923 127.263 63.8982 120.125C63.6786 119.576 64.4472 119.137 64.7766 119.686C65.9296 121.992 67.2472 124.243 68.7296 126.274C70.2119 128.361 71.9139 130.282 73.8355 131.984C79.4355 137.035 87.0119 140.165 94.5884 140.165C102.384 139.945 105.349 135.827 103.537 128.251C103.263 127.043 102.824 125.78 102.22 124.737C101.89 124.298 102.714 123.804 103.043 124.353Z" fill="black"/>
<path d="M124.29 58.4156C125.279 63.0274 121.984 67.9686 121.984 80.2666C121.984 92.8392 119.679 106.51 110.181 116.008C102 124.188 92.6119 123.859 81.5766 115.239C80.0393 114.031 74.659 109.969 73.2864 108.596C71.6942 107.004 70.8158 105.851 70.0472 104.643C69.3884 103.545 69.5531 97.1764 68.6197 95.6941C66.204 91.6862 65.7099 96.0235 62.5805 92.5098C58.2433 87.7882 53.0276 78.2902 55.608 61.4902C59.7805 34.2588 81.357 31.0745 97.3335 34.0941C113.42 37.1686 121.655 46.2823 124.29 58.4156Z" fill="white"/>
<path d="M65.3255 97.396C64.0628 95.3098 62.4706 93.4431 60.9883 91.5215C59.5059 89.4902 58.2981 87.349 57.3098 85.0431C51.7098 71.4823 52.5334 53.749 62.4706 42.3294C69.2785 34.5333 80.0393 31.9529 89.9216 32.5019C99.804 33.1058 110.071 35.6313 117.373 42.7686C121.6 46.8862 124.29 52.3764 125.498 58.0862C125.882 59.898 125.608 61.8745 125.169 63.5764C123.906 68.3529 122.698 72.9098 122.588 77.8509C122.643 85.2078 122.424 92.7294 120.282 99.8117C118.745 104.533 116.933 109.255 114.078 113.373C111.114 117.545 106.667 120.894 101.561 121.882C91.2942 123.969 81.6863 117.49 74.8785 110.463C74.604 110.133 74.9883 109.749 75.3177 109.969C79.2157 112.933 83.2236 115.678 87.5608 117.545C100.078 123.31 110.455 117.984 115.945 105.906C120.557 97.1215 121.875 87.6235 121.49 77.796C121.49 75.3255 121.6 72.8549 121.929 70.3843C122.259 66.8156 123.467 63.247 123.412 59.7333C122.478 54.0235 119.843 48.5333 115.89 44.3058C106.502 34.3686 88.4942 31.4588 75.8667 35.9607C60.9883 41.2313 56.9804 56.2196 56.1569 70.549C55.6079 79.1137 58.1334 87.5137 64.6118 93.3882L67.1922 96.0784C68.0706 97.2862 66.204 98.7137 65.3255 97.396Z" fill="black"/>
<path d="M71.8038 79.9372C71.8038 79.9372 70.1018 71.7019 62.0862 72.6902C55.1685 73.5686 52.7528 90.149 68.4548 94.7607" fill="white"/>
<path d="M67.7413 87.5686C66.4786 86.8549 65.6001 85.647 65.5452 84.1647C65.6001 83.0666 65.7648 81.8039 65.4903 80.7058C65.3256 79.6627 64.2276 79.3882 63.4041 79.4431C62.5256 79.6078 61.9766 80.7059 61.8119 81.5843C61.8119 81.6392 61.757 81.8039 61.757 81.8588C61.7021 82.1333 61.2629 82.1333 61.1531 81.8588C60.4394 79.7176 62.0315 77.3568 64.3374 77.6313C67.5766 77.8509 68.0158 81.2549 67.4119 83.8353C67.0825 84.9333 67.5217 85.9215 68.1256 86.8549L68.2354 87.0196C68.5099 87.349 68.0707 87.7882 67.7413 87.5686Z" fill="black"/>
<path d="M111.663 74.1176C112.486 78.0157 114.024 81.6392 115.945 85.0431C117.647 89.2157 113.255 93.1686 109.357 93.0039C108.918 93.0039 108.863 92.4 109.247 92.2902C111.718 91.5215 113.969 89.8745 114.353 87.349C114.518 86.5804 114.298 85.9215 113.914 85.2627C112.102 81.8588 111.004 77.9607 111.279 74.1176C111.279 73.8431 111.663 73.8431 111.663 74.1176Z" fill="black"/>
<path d="M71.5295 79.9921C70.2668 76.7528 67.5217 73.6783 63.8433 73.7332C63.5139 73.6783 62.9648 73.7881 62.6354 73.7881C61.7021 73.843 60.9335 74.1725 60.2197 74.8313C56.706 78.345 57.3099 84.5489 60.1648 88.447C61.1531 89.8195 62.4158 91.0274 63.8433 92.0156C65.2707 93.0038 66.8629 93.7725 68.5648 94.4313C68.9491 94.5411 68.7844 95.145 68.4001 95.0901C64.7217 94.3215 61.208 92.5097 58.7923 89.4901C55.059 84.9881 54.2903 77.4666 58.7374 73.0744C59.7256 72.196 61.0982 71.5372 62.4707 71.5372C62.9099 71.5372 63.5688 71.4274 64.008 71.5372C66.3139 71.647 68.5099 72.7999 69.9374 74.6117C71.2001 76.1489 71.9139 78.0156 72.1335 79.8823C72.1335 80.2117 71.6393 80.3215 71.5295 79.9921Z" fill="black"/>
<path d="M106.227 98.2745C106.282 99.1529 105.623 100.69 104.415 101.788C98.2115 98 95.4115 99.9764 95.4115 99.9764C93.2155 96.6274 93.7096 92.0705 99.0351 95.5294C102.714 97.9451 105.019 98.3294 106.227 98.2745Z" fill="black"/>
<path d="M104.361 101.843C103.043 102.996 101.067 103.71 98.3765 102.612C97.1138 102.118 96.1256 101.129 95.3569 100.031C95.4118 100.031 98.1569 98.0549 104.361 101.843Z" fill="white"/>
<path d="M107.271 98.1098C107.271 98.1098 104.965 99.3725 99.0353 95.5843C91.9529 91.0274 93.3804 100.58 98.3764 102.612C103.592 104.753 106.282 100.086 106.227 98.3294" stroke="black" stroke-width="3" stroke-miterlimit="10" stroke-linecap="round" stroke-linejoin="round"/>
<path d="M95.4121 100.031C95.4121 100.031 98.2121 98.0549 104.416 101.843" stroke="black" stroke-width="3" stroke-miterlimit="10" stroke-linecap="round" stroke-linejoin="round"/>
<path d="M99.639 66.9803C100.847 66.8705 101.451 65.4431 100.792 64.345C100.408 63.796 99.9135 63.3019 99.1997 63.0274C97.1135 62.3686 90.3056 63.8509 87.3409 67.2548C84.7056 70.3842 94.1488 67.4744 99.639 66.9803Z" fill="black"/>
<path d="M114.133 67.8587C113.2 67.5842 112.925 66.2117 113.694 65.3332C114.078 64.894 114.627 64.5097 115.231 64.3999C117.098 64.0705 121.38 65.7724 122.588 69.0116C123.686 71.8116 118.58 68.9567 114.133 67.8587Z" fill="black"/>
<path d="M91.1844 79.7176C89.8667 79.6627 88.8785 78.5647 88.9883 77.247L89.0432 75.7098C89.0981 74.3921 90.1962 73.4039 91.5138 73.5137C92.8314 73.5686 93.8197 74.6666 93.7099 75.9843L93.655 77.5216C93.6001 78.7843 92.502 79.7725 91.1844 79.7176Z" fill="black"/>
<path d="M114.298 80.5411C113.09 80.4862 112.156 79.4431 112.211 78.2352L112.266 76.8078C112.321 75.5999 113.364 74.6666 114.572 74.7215C115.78 74.7764 116.713 75.8195 116.658 77.0274L116.603 78.4548C116.549 79.6627 115.505 80.596 114.298 80.5411Z" fill="black"/>
<path d="M96.1251 76.7529C94.3133 75.545 92.3369 74.7215 90.1408 75.1607C89.4271 75.2705 88.7133 75.4901 88.2741 75.9842C88.1094 76.2039 87.7251 76.149 87.7251 75.8195C87.78 74.7215 88.7133 74.0078 89.5918 73.5686C91.2937 72.6901 93.6545 72.8548 95.1918 74.0078C95.7408 74.3372 97.6074 76.3686 96.6192 76.8078C96.3996 76.9176 96.2898 76.8627 96.1251 76.7529Z" fill="black"/>
<path d="M111.827 77.0275C111.827 74.7216 114.682 73.898 116.439 74.7216C117.427 75.1608 118.141 76.0392 118.415 77.0824C118.525 77.4118 118.031 77.6863 117.811 77.4118C116.878 76.3137 115.286 75.7647 114.023 76.4235C113.639 76.6431 113.584 76.8078 113.474 77.0275C113.474 78.1255 111.882 78.0706 111.827 77.0275Z" fill="black"/>
<path d="M124.443 74.1723C124.498 73.8978 124.553 73.6233 124.553 73.3488C125.102 69.89 125.486 66.7056 125.706 63.686C126.145 57.537 124.992 46.4468 116.153 39.8037C115.384 39.1998 114.561 38.6507 113.627 38.1566C112.859 37.7174 112.035 37.3331 111.212 36.9488C104.019 33.8743 92.4351 30.1958 80.9606 32.1723C76.5684 32.886 72.1763 34.4782 68.0586 37.1684C68.0037 37.1684 68.0037 37.2233 68.0037 37.2233C58.0116 43.8115 54.4978 54.2429 52.6312 64.0703C52.0272 67.1998 51.588 70.3292 51.2037 73.1841C50.9841 74.6664 50.7645 76.0939 50.5449 77.4115C49.7214 82.4076 46.9763 86.8547 44.0665 90.3684C43.9017 90.5331 43.737 90.7527 43.5723 90.9174C41.2116 93.6076 38.8508 95.7488 37.2037 97.0115C37.0939 97.0664 36.9841 97.1762 36.9292 97.2311C40.5527 108.651 54.388 117.215 67.1802 119.796C69.0468 111.615 70.3096 103.325 68.7174 94.8154C68.2782 94.6507 68.0586 94.486 68.0586 94.3762C52.9057 89.5998 55.3214 73.3488 62.1841 72.4703C64.6547 72.1409 66.4665 72.7449 67.8939 73.6233C69.8155 75.0507 71.9017 78.6194 71.9017 79.6625C72.0116 77.2468 73.0547 73.8978 74.3174 73.788C75.6351 73.6782 76.9527 73.4037 78.2155 72.9096C84.5292 70.7135 90.2939 64.7841 95.3998 59.5135C102.427 52.2664 108.137 46.1174 112.2 52.2115C112.419 52.5409 112.639 52.8703 112.804 53.1998C117.635 53.09 119.886 55.89 121.039 58.7998C121.039 58.7998 121.039 58.7998 121.039 58.8547C121.972 61.3252 122.082 63.8507 122.192 64.5096C122.192 64.6194 122.192 64.6743 122.247 64.6743C122.137 66.8703 121.863 70.6037 121.808 75.4351C121.808 77.6311 122.027 82.0233 121.863 84.5488C121.808 85.3174 121.753 86.086 121.698 86.7998C121.643 87.1841 121.643 87.5684 121.588 87.8978C121.533 88.2272 121.533 88.6115 121.478 88.9958C121.423 89.5449 121.368 90.0939 121.314 90.6978C121.259 91.1919 121.204 91.686 121.149 92.1802V92.2351C121.094 92.6194 121.039 92.9488 120.984 93.2782C120.161 97.6703 118.898 102.337 117.086 105.137C113.463 110.792 110.608 115.568 105.392 117.984C100.231 120.345 94.3567 120.839 94.3567 120.839C94.3567 120.839 96.0037 121.882 99.9017 122.102C103.745 122.321 106.6 121.168 109.455 121.663C115.549 122.706 126.255 122.706 126.255 122.706C134.27 101.623 120.71 100.635 124.443 74.1723Z" fill="black"/>
<path d="M81.6864 90.5882C83.2236 89.7647 84.706 88.8862 86.408 88.447C86.5727 88.447 86.6825 88.3921 87.0119 88.5019C88.1648 89.3804 84.8158 91.5764 84.2119 92.1255C84.3766 91.9059 84.3217 91.5215 84.0472 91.4117C83.9923 91.4117 83.9923 91.3568 83.9374 91.3568C83.8276 91.3568 83.8276 91.3568 83.8276 91.3568C85.2001 90.8627 86.5727 90.3137 87.8903 89.6549C88.6589 89.3255 89.7021 88.6117 90.5256 88.5568C90.855 88.5568 91.2393 88.8862 91.1844 89.2157C91.1295 89.6549 91.0197 89.8196 90.9099 90.0941C90.8001 90.3137 90.5805 90.6431 90.5256 90.8627C90.5256 90.9176 90.4707 90.8078 90.4707 90.8078C90.4707 90.8627 90.8001 90.8627 90.855 90.8078C91.7334 90.698 92.6668 90.3686 93.5452 90.0392C93.7099 89.9843 93.8197 90.2039 93.655 90.3137C92.7217 90.9176 91.7334 91.5764 90.5256 91.6862C89.757 91.7412 89.3727 91.0274 89.6472 90.3686C89.757 89.9843 90.0315 89.5451 90.1413 89.2157C90.1413 89.3255 90.2511 89.4902 90.3609 89.5451C90.4707 89.6 90.5256 89.5451 90.4707 89.6C89.9217 89.7647 88.8236 90.3686 88.3295 90.5882C86.9021 91.247 85.5295 91.851 83.9923 92.2902C83.8825 92.2902 83.8825 92.3451 83.7178 92.2902C83.2785 92.2353 83.1687 91.6862 83.4981 91.4117C84.157 90.8627 84.9256 90.4235 85.5295 89.8745C85.8589 89.6 86.2432 89.2157 86.4628 88.8862C86.4628 88.9411 86.5177 89.051 86.5726 89.1059C86.0785 89.1608 85.0903 89.4353 84.4864 89.7098C83.608 90.0392 82.6746 90.4235 81.7962 90.8078C81.6864 90.9176 81.5217 90.6431 81.6864 90.5882Z" fill="black"/>
<path d="M117.263 90.5882C117.757 90.0392 119.843 87.4039 120.392 88.7764C120.392 88.8862 120.392 88.9961 120.392 89.051C120.173 90.149 119.459 91.0823 118.91 92.0157C119.02 91.7412 118.8 91.3568 118.526 91.3019C118.416 91.3019 118.361 91.3019 118.306 91.3019C118.251 91.3019 118.306 91.3019 118.361 91.247C119.459 90.5333 120.283 89.6549 121.381 88.8862C121.6 88.7764 121.875 88.6117 122.149 88.7764C122.424 88.9961 122.369 89.3255 122.259 89.5451C122.149 89.8196 122.039 90.0392 121.93 90.3137C121.875 90.3686 121.82 90.4235 121.71 90.3686C121.655 90.3686 121.655 90.3137 121.655 90.2588C121.655 90.149 121.655 89.4353 121.655 89.3255C121.6 89.2157 121.655 89.2706 121.655 89.3255C121.655 89.3804 121.765 89.4902 121.875 89.4902C121.93 89.4902 122.039 89.4902 122.039 89.4902C121.106 90.5882 120.008 91.6313 118.745 92.3451C118.361 92.5098 117.922 92.1804 117.977 91.7412C117.977 91.6862 118.032 91.5764 118.087 91.5215C118.471 90.9725 118.91 90.4235 119.239 89.8745C119.404 89.6 119.624 89.2157 119.679 88.9412C119.679 89.051 119.898 89.2157 119.953 89.1608C119.075 89.4902 118.306 90.2039 117.537 90.7529C117.318 90.9176 117.153 90.698 117.263 90.5882Z" fill="black"/>
<path d="M81.6864 90.5882C83.2236 89.7647 84.706 88.8862 86.408 88.447C86.5727 88.447 86.6825 88.3921 87.0119 88.5019C88.1648 89.3804 84.8158 91.5764 84.2119 92.1255C84.3766 91.9059 84.3217 91.5215 84.0472 91.4117C83.9923 91.4117 83.9923 91.3568 83.9374 91.3568C83.8276 91.3568 83.8276 91.3568 83.8276 91.3568C85.2001 90.8627 86.5727 90.3137 87.8903 89.6549C88.6589 89.3255 89.7021 88.6117 90.5256 88.5568C90.855 88.5568 91.2393 88.8862 91.1844 89.2157C91.1295 89.6549 91.0197 89.8196 90.9099 90.0941C90.8001 90.3137 90.5805 90.6431 90.5256 90.8627C90.5256 90.9176 90.4707 90.8078 90.4707 90.8078C90.4707 90.8627 90.8001 90.8627 90.855 90.8078C91.7334 90.698 92.6668 90.3686 93.5452 90.0392C93.7099 89.9843 93.8197 90.2039 93.655 90.3137C92.7217 90.9176 91.7334 91.5764 90.5256 91.6862C89.757 91.7412 89.3727 91.0274 89.6472 90.3686C89.757 89.9843 90.0315 89.5451 90.1413 89.2157C90.1413 89.3255 90.2511 89.4902 90.3609 89.5451C90.4707 89.6 90.5256 89.5451 90.4707 89.6C89.9217 89.7647 88.8236 90.3686 88.3295 90.5882C86.9021 91.247 85.5295 91.851 83.9923 92.2902C83.8825 92.2902 83.8825 92.3451 83.7178 92.2902C83.2785 92.2353 83.1687 91.6862 83.4981 91.4117C84.157 90.8627 84.9256 90.4235 85.5295 89.8745C85.8589 89.6 86.2432 89.2157 86.4628 88.8862C86.4628 88.9411 86.5177 89.051 86.5726 89.1059C86.0785 89.1608 85.0903 89.4353 84.4864 89.7098C83.608 90.0392 82.6746 90.4235 81.7962 90.8078C81.6864 90.9176 81.5217 90.6431 81.6864 90.5882Z" fill="black"/>
<path d="M117.263 90.5882C117.757 90.0392 119.843 87.4039 120.392 88.7764C120.392 88.8862 120.392 88.9961 120.392 89.051C120.173 90.149 119.459 91.0823 118.91 92.0157C119.02 91.7412 118.8 91.3568 118.526 91.3019C118.416 91.3019 118.361 91.3019 118.306 91.3019C118.251 91.3019 118.306 91.3019 118.361 91.247C119.459 90.5333 120.283 89.6549 121.381 88.8862C121.6 88.7764 121.875 88.6117 122.149 88.7764C122.424 88.9961 122.369 89.3255 122.259 89.5451C122.149 89.8196 122.039 90.0392 121.93 90.3137C121.875 90.3686 121.82 90.4235 121.71 90.3686C121.655 90.3686 121.655 90.3137 121.655 90.2588C121.655 90.149 121.655 89.4353 121.655 89.3255C121.6 89.2157 121.655 89.2706 121.655 89.3255C121.655 89.3804 121.765 89.4902 121.875 89.4902C121.93 89.4902 122.039 89.4902 122.039 89.4902C121.106 90.5882 120.008 91.6313 118.745 92.3451C118.361 92.5098 117.922 92.1804 117.977 91.7412C117.977 91.6862 118.032 91.5764 118.087 91.5215C118.471 90.9725 118.91 90.4235 119.239 89.8745C119.404 89.6 119.624 89.2157 119.679 88.9412C119.679 89.051 119.898 89.2157 119.953 89.1608C119.075 89.4902 118.306 90.2039 117.537 90.7529C117.318 90.9176 117.153 90.698 117.263 90.5882Z" fill="black"/>
<path d="M81.6864 90.5882C83.2236 89.7647 84.706 88.8862 86.408 88.447C86.5727 88.447 86.6825 88.3921 87.0119 88.5019C88.1648 89.3804 84.8158 91.5764 84.2119 92.1255C84.3766 91.9059 84.3217 91.5215 84.0472 91.4117C83.9923 91.4117 83.9923 91.3568 83.9374 91.3568C83.8276 91.3568 83.8276 91.3568 83.8276 91.3568C85.2001 90.8627 86.5727 90.3137 87.8903 89.6549C88.6589 89.3255 89.7021 88.6117 90.5256 88.5568C90.855 88.5568 91.2393 88.8862 91.1844 89.2157C91.1295 89.6549 91.0197 89.8196 90.9099 90.0941C90.8001 90.3137 90.5805 90.6431 90.5256 90.8627C90.5256 90.9176 90.4707 90.8078 90.4707 90.8078C90.4707 90.8627 90.8001 90.8627 90.855 90.8078C91.7334 90.698 92.6668 90.3686 93.5452 90.0392C93.7099 89.9843 93.8197 90.2039 93.655 90.3137C92.7217 90.9176 91.7334 91.5764 90.5256 91.6862C89.757 91.7412 89.3727 91.0274 89.6472 90.3686C89.757 89.9843 90.0315 89.5451 90.1413 89.2157C90.1413 89.3255 90.2511 89.4902 90.3609 89.5451C90.4707 89.6 90.5256 89.5451 90.4707 89.6C89.9217 89.7647 88.8236 90.3686 88.3295 90.5882C86.9021 91.247 85.5295 91.851 83.9923 92.2902C83.8825 92.2902 83.8825 92.3451 83.7178 92.2902C83.2785 92.2353 83.1687 91.6862 83.4981 91.4117C84.157 90.8627 84.9256 90.4235 85.5295 89.8745C85.8589 89.6 86.2432 89.2157 86.4628 88.8862C86.4628 88.9411 86.5177 89.051 86.5726 89.1059C86.0785 89.1608 85.0903 89.4353 84.4864 89.7098C83.608 90.0392 82.6746 90.4235 81.7962 90.8078C81.6864 90.9176 81.5217 90.6431 81.6864 90.5882Z" fill="black"/>
<path d="M117.263 90.5882C117.757 90.0392 119.843 87.4039 120.392 88.7764C120.392 88.8862 120.392 88.9961 120.392 89.051C120.173 90.149 119.459 91.0823 118.91 92.0157C119.02 91.7412 118.8 91.3568 118.526 91.3019C118.416 91.3019 118.361 91.3019 118.306 91.3019C118.251 91.3019 118.306 91.3019 118.361 91.247C119.459 90.5333 120.283 89.6549 121.381 88.8862C121.6 88.7764 121.875 88.6117 122.149 88.7764C122.424 88.9961 122.369 89.3255 122.259 89.5451C122.149 89.8196 122.039 90.0392 121.93 90.3137C121.875 90.3686 121.82 90.4235 121.71 90.3686C121.655 90.3686 121.655 90.3137 121.655 90.2588C121.655 90.149 121.655 89.4353 121.655 89.3255C121.6 89.2157 121.655 89.2706 121.655 89.3255C121.655 89.3804 121.765 89.4902 121.875 89.4902C121.93 89.4902 122.039 89.4902 122.039 89.4902C121.106 90.5882 120.008 91.6313 118.745 92.3451C118.361 92.5098 117.922 92.1804 117.977 91.7412C117.977 91.6862 118.032 91.5764 118.087 91.5215C118.471 90.9725 118.91 90.4235 119.239 89.8745C119.404 89.6 119.624 89.2157 119.679 88.9412C119.679 89.051 119.898 89.2157 119.953 89.1608C119.075 89.4902 118.306 90.2039 117.537 90.7529C117.318 90.9176 117.153 90.698 117.263 90.5882Z" fill="black"/>
</g>
</svg>
