<svg width="26" height="28" viewBox="0 0 26 28" fill="none" xmlns="http://www.w3.org/2000/svg">
<circle cx="13.2397" cy="14.8437" r="12.7604" fill="#EBEBEB"/>
<mask id="mask0_63_2083" style="mask-type:alpha" maskUnits="userSpaceOnUse" x="1" y="0" width="25" height="25">
<circle cx="13.459" cy="12.459" r="12.459" fill="#D9D9D9"/>
</mask>
<g mask="url(#mask0_63_2083)">
<path d="M20.2892 22.7452C20.232 22.786 20.1666 22.8269 20.1095 22.8677C20.0441 22.9086 19.9869 22.9494 19.9216 22.9821C19.8644 23.0148 19.8153 23.0475 19.7582 23.0801C19.75 23.0883 19.7418 23.0883 19.7336 23.0965C19.5457 23.2109 19.3497 23.3171 19.1536 23.4151C19.0964 23.4478 19.031 23.4805 18.9738 23.505C18.9738 23.505 18.9657 23.5131 18.9575 23.5131C18.8921 23.5458 18.8268 23.5785 18.7614 23.6112C18.6307 23.6765 18.4918 23.7337 18.3611 23.7909C18.2957 23.8236 18.2222 23.8481 18.1568 23.8726C18.0915 23.8971 18.018 23.9298 17.9526 23.9543C17.8872 23.9788 17.8137 24.0115 17.7483 24.036C17.7483 24.036 17.7483 24.036 17.7402 24.036C17.6748 24.0605 17.6013 24.085 17.5359 24.1096C17.3889 24.1586 17.2336 24.2076 17.0866 24.2566C17.0376 24.273 16.9804 24.2893 16.9314 24.3056C16.7761 24.3547 16.6209 24.3955 16.4657 24.4282C16.4085 24.4445 16.3513 24.4527 16.2859 24.469C16.1389 24.5017 15.9836 24.5344 15.8366 24.5671C15.8039 24.5752 15.7794 24.5752 15.7467 24.5834C15.6977 24.5916 15.6405 24.5998 15.5915 24.6079C15.518 24.6161 15.4526 24.6324 15.3791 24.6406C15.3464 24.6488 15.3137 24.6488 15.281 24.6569C15.2402 24.6651 15.1912 24.6733 15.1421 24.6733C15.0114 24.6896 14.8725 24.706 14.7418 24.7223C14.701 24.7305 14.6519 24.7305 14.6111 24.7386H14.6029C14.5457 24.7468 14.4885 24.7468 14.4314 24.755C14.3742 24.7631 14.317 24.7632 14.2598 24.7632C14.2271 24.7632 14.1863 24.7713 14.1536 24.7713C14.0882 24.7713 14.031 24.7795 13.9738 24.7795C13.8921 24.7795 13.8186 24.7877 13.7369 24.7877C13.6552 24.7877 13.5817 24.7877 13.5 24.7877C13.4428 24.7877 13.3856 24.7877 13.3284 24.7877C9.8807 24.7386 6.7843 23.2762 4.57024 20.956C4.57024 20.956 4.57024 20.9478 4.56207 20.9478C4.31697 20.7272 4.52939 19.5507 5.51796 18.8073C6.75979 17.8677 9.73364 17.2795 9.73364 17.2795C9.73364 17.2795 10.8856 17.0916 15.1585 17.9821C17.6585 18.505 19.5621 19.2648 20.6242 21.3236C20.8448 21.7484 21.0653 22.402 20.2892 22.7452Z" fill="white"/>
<path d="M15.183 17.8922C16.7517 18.2108 18.4265 18.554 19.7174 19.5915C20.1504 19.9429 20.4363 20.4576 20.6732 20.9559C20.7876 21.201 20.902 21.4543 20.9919 21.7239C21.0409 21.9036 21.1144 22.1079 21.0736 22.3203C21.0654 22.3775 21.0164 22.451 20.9755 22.4919C20.7876 22.6798 20.5834 22.7942 20.3791 22.9412C19.1781 23.7745 17.7974 24.3628 16.3677 24.6732C13.1814 25.3677 9.73369 24.8285 6.9314 23.1536C6.00003 22.5899 5.14219 21.9036 4.40689 21.0948C4.3252 20.9968 4.3252 20.8334 4.3252 20.7272C4.33337 20.4821 4.39872 20.2451 4.48042 20.0246C4.6765 19.518 4.92977 19.0115 5.36278 18.6602C5.67323 18.4478 6.0082 18.268 6.35134 18.121C7.42977 17.6634 8.56539 17.3448 9.73369 17.2141C9.83173 17.2059 9.84807 17.3448 9.75003 17.3612C8.63075 17.5899 7.51964 17.933 6.48206 18.3987C6.10624 18.5866 5.70591 18.75 5.40363 19.0442C5.11768 19.3546 4.91343 19.7386 4.75003 20.1308C4.64382 20.3677 4.57029 20.7435 4.60297 20.9314C5.11768 21.5442 5.72225 22.0834 6.37585 22.5491C9.95428 25.0491 15.3873 25.2125 19.1945 23.1291C19.5376 22.9412 19.8726 22.7288 20.1912 22.5082C20.3464 22.402 20.5098 22.3121 20.6324 22.1896C20.6406 22.1814 20.6324 22.1896 20.6324 22.1978C20.6324 22.2059 20.6242 22.2141 20.6242 22.2141C20.6324 22.1161 20.5997 21.9853 20.5589 21.8546C20.4118 21.3808 20.1749 20.8824 19.9216 20.4494C19.5213 19.804 18.8432 19.3955 18.1569 19.0687C17.683 18.8481 17.1847 18.6765 16.6781 18.5131C16.1716 18.3497 15.6569 18.2108 15.1422 18.0883C15.0115 18.0556 15.0523 17.8677 15.183 17.8922Z" fill="black"/>
<path d="M8.42643 17.5327C8.71238 18.0392 9.79898 20.0735 9.97055 21.8709L10.9836 22.2141C10.9836 22.2141 10.2156 18.8154 8.8431 17.2386C8.8431 17.2386 8.6797 17.165 8.47545 17.3039C8.41009 17.3611 8.37741 17.451 8.42643 17.5327Z" fill="black"/>
<path d="M17.1192 21.8955C17.1192 21.8955 17.1682 19.6324 16.1878 18.1455C16.1633 18.1046 16.1959 18.0474 16.245 18.0556C16.3103 18.0719 16.4084 18.0964 16.5636 18.17C16.825 18.2925 17.6747 19.5915 17.7482 21.7239C17.7482 21.7157 17.2009 21.8955 17.1192 21.8955Z" fill="black"/>
<path d="M19.9134 19.7713C19.4885 19.322 18.2059 18.652 17.9853 18.6684C17.9934 18.6847 17.9934 18.7092 18.0016 18.7337C18.3447 19.9674 18.067 21.6422 16.817 21.92C15.5179 22.2059 14.4313 22.2468 11.8251 21.9854C9.91337 21.7974 8.11598 20.0818 7.20095 18.3824C7.11108 18.2108 7.00487 18.0393 6.89049 17.884C6.82513 17.835 6.70258 17.8432 6.61271 17.9167C6.38396 18.1046 6.08167 18.0883 6.08167 18.268C6.08167 18.268 4.34964 18.8073 3.74507 22.6063C3.40193 24.755 2.9199 27.5409 2.90356 28.4886H21.5065C21.3758 27.2141 21.5065 21.536 19.9134 19.7713Z" fill="black"/>
<path d="M19.7582 19.9183C19.5131 19.6732 19.1944 19.4853 18.8921 19.3056C18.6144 19.1422 18.2712 18.9624 17.9853 18.8807L18.1732 18.6193L18.1814 18.6683C18.4101 19.6242 18.3611 20.7598 17.6993 21.5441C17.4706 21.8056 17.1356 21.9935 16.7925 22.0507C16.1552 22.1814 15.4935 22.2549 14.8399 22.2549C13.6961 22.2467 12.5686 22.1569 11.4412 22.0016C10.6405 21.8301 9.89705 21.4298 9.25162 20.9314C8.34476 20.2288 7.65031 19.3056 7.00489 18.366C6.91502 18.2353 6.80881 18.1128 6.69443 18.0066L6.73528 18.0556C6.75162 18.0719 6.75979 18.0637 6.75162 18.0637C6.75162 18.0637 6.73528 18.0637 6.72711 18.0719C6.71894 18.0719 6.71894 18.0719 6.71077 18.0883C6.58005 18.2026 6.36763 18.2598 6.23691 18.3334C6.24508 18.3334 6.26142 18.2843 6.26142 18.2762L6.11436 18.4722L6.08985 18.4804L6.05718 18.4967C4.93789 19.1013 4.39868 20.5392 4.10456 21.7157C3.81861 23.0556 3.64704 24.4363 3.41829 25.7843C3.28757 26.683 3.12417 27.6062 3.08332 28.4967L2.8709 28.2843H21.5065L21.3023 28.5131C21.1307 26.25 21.2206 21.6585 19.7582 19.9183ZM20.0686 19.6324C21.6454 21.4706 21.5474 26.0866 21.7189 28.4722C21.7271 28.5866 21.6454 28.6928 21.531 28.701C21.5229 28.7173 2.91175 28.6928 2.90358 28.701C2.7892 28.701 2.69116 28.6111 2.69116 28.4967C2.7075 28.0147 2.77286 27.549 2.83005 27.0915C3.01796 25.719 3.24672 24.3546 3.46731 22.9902C3.60619 22.0752 3.7941 21.1356 4.16175 20.2696C4.5294 19.4118 5.07678 18.5131 5.95914 18.0964C5.97548 18.0883 5.99182 18.0801 6.01633 18.0719L5.86927 18.268C5.8611 17.982 6.17155 17.9085 6.36763 17.8268C6.49835 17.7533 6.60456 17.6471 6.76796 17.6471C6.84966 17.6389 6.99672 17.6716 7.06208 17.7696C7.17646 17.9984 7.2745 18.2271 7.37253 18.4559C7.53593 18.8235 7.74835 19.1667 7.99345 19.4853C8.8758 20.6046 10.0686 21.585 11.4902 21.8709C11.964 21.9526 12.4542 21.969 12.9281 22.0098C14.2108 22.0997 15.5016 22.116 16.7516 21.8056C17.0457 21.7402 17.299 21.585 17.4869 21.3562C18.0425 20.6536 18.0425 19.6242 17.7974 18.7909L17.781 18.7255C17.7402 18.603 17.8382 18.4641 17.9689 18.4641C18.2059 18.4722 18.3856 18.5866 18.598 18.6765C19.1209 18.9379 19.6356 19.2157 20.0686 19.6324Z" fill="black"/>
<path d="M17.3153 22.8023C15.9754 23.3742 11.5719 23.505 9.33329 22.2958C7.91989 21.536 7.00486 19.8612 6.56368 19.2157C6.23689 18.7256 6.07349 18.268 6.07349 18.268C6.07349 18.0883 6.38394 18.1046 6.60453 17.9167C6.6944 17.8432 6.81695 17.835 6.88231 17.884C6.99669 18.0474 7.1029 18.2108 7.19277 18.3824C8.1078 20.0736 9.55388 21.7729 11.817 21.9854C14.4232 22.2305 15.5098 22.2059 16.8088 21.92C18.0588 21.6422 18.3366 19.9674 17.9934 18.7337C17.9853 18.7174 17.9853 18.6929 17.9771 18.6684C18.1977 18.652 18.6225 18.6929 18.7777 19.085C18.7859 19.085 19.415 21.9118 17.3153 22.8023Z" fill="white"/>
<path d="M17.3644 22.9167C16.8252 23.1372 16.2614 23.2189 15.6977 23.2843C15.134 23.3497 14.5703 23.3742 14.0065 23.3742C12.5931 23.3578 11.1552 23.2271 9.82353 22.7206C8.30392 22.1732 7.32353 20.7925 6.50653 19.4853C6.26144 19.1258 6.03268 18.7582 5.89379 18.3415C5.85294 18.2353 5.9183 18.0882 6.00817 18.0229C6.13072 17.9248 6.26961 17.9248 6.39215 17.8758C6.47385 17.8513 6.52287 17.8023 6.5964 17.7614C6.72712 17.7042 6.87418 17.6552 7.03758 17.7288C7.97712 19.7794 9.52124 21.7402 11.9395 21.9118C13.5408 22.0588 15.1748 22.2222 16.7598 21.8546C17.3971 21.7484 17.8137 21.1765 17.9608 20.5719C18.1242 19.9591 18.0752 19.2974 17.9036 18.6928C17.8873 18.6356 17.9281 18.5784 17.9853 18.5784C18.3366 18.5457 18.7696 18.701 18.8922 19.0686C19.031 19.8039 19.031 20.5555 18.8186 21.2663C18.6062 21.9935 18.067 22.6307 17.3644 22.9167ZM17.2663 22.6879C17.9199 22.4265 18.402 21.8709 18.6225 21.2091C18.8431 20.5392 18.8676 19.7957 18.7288 19.1013C18.6307 18.8317 18.2876 18.7173 17.9935 18.7582L18.0752 18.6438C18.3529 19.6895 18.2957 21.1928 17.2582 21.8219C17.1111 21.9036 16.9477 21.9608 16.7843 21.9935C16.4657 22.0588 16.1389 22.116 15.8203 22.1569C14.5212 22.2957 13.214 22.1895 11.9232 22.0833C9.70915 21.9689 8.00163 20.2288 7.05392 18.3497C6.98856 18.2026 6.91503 18.0637 6.8415 17.9167L6.85784 17.933C6.73529 17.8595 6.60457 18.031 6.49019 18.0719C6.38398 18.1291 6.26961 18.1536 6.17974 18.2108C6.1634 18.2271 6.15523 18.2435 6.15523 18.268V18.2435C6.34313 18.7582 6.68627 19.2238 6.98039 19.6814C7.72385 20.8252 8.62255 21.9771 9.94608 22.451C11.7925 23.1863 15.3709 23.366 17.2663 22.6879Z" fill="black"/>
<path d="M15.951 20.0654C15.7795 20.9069 14.6684 21.4134 12.7974 20.6536C10.853 19.8693 10.0115 17.9984 9.79907 17.4428C10.951 15.286 10.1504 13.7909 10.1504 13.7909C12.8056 13.5621 15.1259 16.6667 15.1259 16.6667L15.4853 18.2026C15.518 18.3333 15.5834 18.4477 15.6814 18.5294C15.853 18.8317 16.0572 19.5262 15.951 20.0654Z" fill="white"/>
<path d="M9.75823 17.4673C9.91346 17.2304 10.0115 16.9526 10.0769 16.683C10.1994 16.1193 10.2403 15.5474 10.2484 14.9755V14.7631C10.2239 14.5506 10.1504 14.33 10.0687 14.134C9.96248 13.8725 10.3465 13.7091 10.469 13.9706C10.4854 14.0032 10.4854 14.0604 10.4854 14.0931C10.5099 15.2042 10.5589 16.634 9.85627 17.5572C9.80725 17.6062 9.70921 17.5327 9.75823 17.4673Z" fill="black"/>
<path d="M15.2156 16.6503C15.3382 16.7238 15.379 16.8219 15.3954 16.9199C15.4444 17.116 15.4281 17.3284 15.4771 17.5327C15.5179 17.7287 15.6405 17.9166 15.6732 18.1209C15.714 18.3333 15.8366 18.7827 15.8856 19.0032C15.9019 19.0523 15.8692 19.1095 15.812 19.1176C15.7794 19.1258 15.7549 19.1176 15.7303 19.1013C15.6241 19.0114 15.5751 18.9215 15.5098 18.8072C15.4036 18.6111 15.33 18.4313 15.2647 18.2108C15.2075 18.0147 15.232 17.8023 15.183 17.598C15.1421 17.4019 15.0277 17.214 14.9869 17.0098C14.9624 16.9117 14.9542 16.8055 15.0277 16.683C15.0768 16.634 15.1585 16.6176 15.2156 16.6503Z" fill="black"/>
<path d="M15.8041 18.8072C14.2436 18.7255 12.9691 18.2353 11.7273 16.0212C12.773 16.9444 14.0067 17.2957 15.3057 17.4591L15.4773 18.2108C15.51 18.3415 15.7061 18.7255 15.8041 18.8072Z" fill="black"/>
<path d="M15.7387 18.5049C16.0164 19.0278 16.1798 19.6814 16.0083 20.2615C15.8775 20.67 15.5017 20.9723 15.0932 21.0866C14.1455 21.3399 13.0507 20.9396 12.2092 20.4902C11.1717 19.9102 10.4037 18.9379 9.91349 17.8759C9.88082 17.7942 9.99519 17.7288 10.0442 17.8105C10.2158 18.1536 10.4119 18.4886 10.6324 18.7909C10.853 19.1013 11.1063 19.3873 11.3923 19.6406C12.2256 20.3922 13.353 20.8579 14.4805 20.8579C15.6406 20.8252 16.0818 20.2125 15.8122 19.085C15.7713 18.9053 15.706 18.7174 15.6161 18.5621C15.5671 18.4968 15.6896 18.4232 15.7387 18.5049Z" fill="black"/>
<path d="M18.9004 8.69283C19.0475 9.3791 18.5573 10.1144 18.5573 11.9445C18.5573 13.8154 18.2141 15.8497 16.8007 17.2631C15.5834 18.4804 14.1863 18.4314 12.5442 17.1487C12.3154 16.969 11.5148 16.3644 11.3105 16.1601C11.0736 15.9232 10.9429 15.7516 10.8285 15.5719C10.7305 15.4085 10.755 14.4608 10.6161 14.2402C10.2566 13.6438 10.1831 14.2892 9.71739 13.7664C9.07196 13.0637 8.29582 11.6503 8.67981 9.15034C9.30072 5.09805 12.5115 4.6242 14.889 5.07354C17.2827 5.53106 18.5082 6.88727 18.9004 8.69283Z" fill="white"/>
<path d="M10.1259 14.4935C9.93795 14.183 9.70102 13.9052 9.48044 13.6193C9.25985 13.317 9.08011 12.9984 8.93305 12.6552C8.09972 10.6373 8.22227 7.99836 9.70102 6.29902C10.7141 5.13889 12.3154 4.7549 13.786 4.8366C15.2566 4.92647 16.7844 5.30229 17.871 6.36438C18.5 6.97712 18.9004 7.79412 19.0801 8.64379C19.1373 8.9134 19.0964 9.20751 19.0311 9.46078C18.8432 10.1716 18.6634 10.8497 18.6471 11.585C18.6553 12.6797 18.6226 13.799 18.304 14.8529C18.0752 15.5556 17.8056 16.2582 17.3808 16.8709C16.9396 17.4918 16.2778 17.9902 15.518 18.1373C13.9902 18.4477 12.5605 17.4837 11.5474 16.4379C11.5066 16.3889 11.5638 16.3317 11.6128 16.3644C12.1929 16.8056 12.7893 17.2141 13.4347 17.4918C15.2974 18.3497 16.8415 17.5572 17.6585 15.7598C18.3448 14.4526 18.5409 13.0392 18.4837 11.5768C18.4837 11.2091 18.5 10.8415 18.5491 10.4739C18.5981 9.94281 18.7778 9.41176 18.7697 8.88889C18.6308 8.03921 18.2386 7.22222 17.6504 6.59313C16.2533 5.11438 13.5736 4.68137 11.6945 5.3513C9.48044 6.13562 8.88403 8.36601 8.76148 10.4984C8.67978 11.7729 9.0556 13.0229 10.0197 13.8971L10.4036 14.2974C10.5344 14.4771 10.2566 14.6895 10.1259 14.4935Z" fill="black"/>
<path d="M11.09 11.8954C11.09 11.8954 10.8367 10.6699 9.64392 10.8169C8.6145 10.9477 8.25503 13.415 10.5916 14.1013" fill="white"/>
<path d="M10.4853 13.0311C10.2973 12.9249 10.1666 12.7451 10.1585 12.5245C10.1666 12.3612 10.1911 12.1732 10.1503 12.0098C10.1258 11.8546 9.96238 11.8138 9.83983 11.8219C9.70911 11.8464 9.62741 12.0098 9.6029 12.1406C9.6029 12.1487 9.59473 12.1732 9.59473 12.1814C9.58656 12.2223 9.5212 12.2223 9.50486 12.1814C9.39865 11.8628 9.63558 11.5115 9.97872 11.5523C10.4607 11.585 10.5261 12.0915 10.4362 12.4755C10.3872 12.6389 10.4526 12.786 10.5424 12.9249L10.5588 12.9494C10.5996 12.9984 10.5343 13.0638 10.4853 13.0311Z" fill="black"/>
<path d="M17.0213 11.0294C17.1438 11.6095 17.3726 12.1487 17.6585 12.6552C17.9118 13.2761 17.2582 13.8644 16.6781 13.8399C16.6128 13.8399 16.6046 13.75 16.6618 13.7337C17.0294 13.6193 17.3644 13.3742 17.4216 12.9984C17.4461 12.884 17.4134 12.786 17.3562 12.6879C17.0866 12.1814 16.9232 11.6013 16.9641 11.0294C16.9641 10.9886 17.0213 10.9886 17.0213 11.0294Z" fill="black"/>
<path d="M11.0491 11.9036C10.8611 11.4216 10.4526 10.9641 9.90526 10.9722C9.85624 10.9641 9.77454 10.9804 9.72552 10.9804C9.58663 10.9886 9.47225 11.0376 9.36604 11.1356C8.84317 11.6585 8.93304 12.5817 9.35787 13.1618C9.50493 13.366 9.69284 13.5458 9.90526 13.6928C10.1177 13.8399 10.3546 13.9543 10.6079 14.0523C10.6651 14.0686 10.6406 14.1585 10.5834 14.1503C10.036 14.036 9.5131 13.7664 9.15363 13.317C8.59807 12.6471 8.48369 11.5278 9.14546 10.8742C9.29251 10.7435 9.49676 10.6454 9.70101 10.6454C9.76637 10.6454 9.86441 10.6291 9.92977 10.6454C10.2729 10.6618 10.5997 10.8334 10.8121 11.103C11 11.3317 11.1062 11.6095 11.1389 11.8873C11.1389 11.9363 11.0654 11.9526 11.0491 11.9036Z" fill="black"/>
<path d="M16.2123 14.6242C16.2205 14.7549 16.1225 14.9837 15.9427 15.1471C15.0195 14.5833 14.6028 14.8775 14.6028 14.8775C14.2761 14.3791 14.3496 13.701 15.1421 14.2157C15.6895 14.5752 16.0326 14.6324 16.2123 14.6242Z" fill="black"/>
<path d="M15.9346 15.1553C15.7385 15.3268 15.4444 15.433 15.0441 15.2696C14.8562 15.1961 14.7091 15.0491 14.5947 14.8857C14.6029 14.8857 15.0114 14.5915 15.9346 15.1553Z" fill="white"/>
<path d="M16.3677 14.5996C16.3677 14.5996 16.0245 14.7875 15.1422 14.2238C14.0883 13.5457 14.3007 14.9673 15.0441 15.2696C15.8203 15.5882 16.2206 14.8937 16.2124 14.6323" stroke="black" stroke-width="3" stroke-miterlimit="10" stroke-linecap="round" stroke-linejoin="round"/>
<path d="M14.603 14.8857C14.603 14.8857 15.0197 14.5915 15.9429 15.1553" stroke="black" stroke-width="3" stroke-miterlimit="10" stroke-linecap="round" stroke-linejoin="round"/>
<path d="M15.232 9.9673C15.4117 9.95096 15.5016 9.73854 15.4035 9.57515C15.3463 9.49345 15.2728 9.41992 15.1666 9.37907C14.8561 9.28103 13.8431 9.50162 13.4019 10.0082C13.0097 10.4738 14.415 10.0408 15.232 9.9673Z" fill="black"/>
<path d="M17.3888 10.098C17.25 10.0571 17.2091 9.85288 17.3235 9.72216C17.3807 9.6568 17.4624 9.59961 17.5522 9.58327C17.83 9.53425 18.4673 9.78752 18.647 10.2695C18.8104 10.6862 18.0506 10.2614 17.3888 10.098Z" fill="black"/>
<path d="M13.9738 11.8627C13.7777 11.8545 13.6307 11.6911 13.647 11.495L13.6552 11.2663C13.6633 11.0702 13.8267 10.9231 14.0228 10.9395C14.2189 10.9476 14.3659 11.111 14.3496 11.3071L14.3414 11.5359C14.3333 11.7238 14.1699 11.8708 13.9738 11.8627Z" fill="black"/>
<path d="M17.4133 11.9853C17.2336 11.9771 17.0947 11.8219 17.1029 11.6421L17.1111 11.4297C17.1192 11.25 17.2744 11.1111 17.4542 11.1192C17.6339 11.1274 17.7728 11.2826 17.7646 11.4624L17.7565 11.6748C17.7483 11.8545 17.5931 11.9934 17.4133 11.9853Z" fill="black"/>
<path d="M14.709 11.4215C14.4394 11.2418 14.1453 11.1192 13.8185 11.1846C13.7123 11.2009 13.606 11.2336 13.5407 11.3072C13.5162 11.3398 13.459 11.3317 13.459 11.2826C13.4672 11.1193 13.606 11.013 13.7368 10.9477C13.99 10.817 14.3413 10.8415 14.5701 11.013C14.6518 11.0621 14.9296 11.3643 14.7825 11.4297C14.7498 11.446 14.7335 11.4379 14.709 11.4215Z" fill="black"/>
<path d="M17.0457 11.4624C17.0457 11.1192 17.4705 10.9967 17.7319 11.1192C17.879 11.1846 17.9852 11.3153 18.026 11.4705C18.0424 11.5195 17.9689 11.5604 17.9362 11.5195C17.7973 11.3561 17.5604 11.2745 17.3725 11.3725C17.3153 11.4052 17.3071 11.4297 17.2908 11.4624C17.2908 11.6258 17.0538 11.6176 17.0457 11.4624Z" fill="black"/>
<path d="M18.923 11.0376C18.9312 10.9967 18.9394 10.9559 18.9394 10.915C19.0211 10.4003 19.0783 9.92645 19.1109 9.4771C19.1763 8.56207 19.0047 6.91175 17.6894 5.92318C17.575 5.83331 17.4524 5.75161 17.3135 5.67809C17.1992 5.61273 17.0766 5.55554 16.9541 5.49835C15.8838 5.04083 14.1599 4.49344 12.4524 4.78756C11.7988 4.89377 11.1452 5.1307 10.5325 5.53103C10.5243 5.53103 10.5243 5.5392 10.5243 5.5392C9.0374 6.51959 8.51453 8.07188 8.23675 9.53429C8.14688 9.99998 8.08152 10.4657 8.02433 10.8905C7.99165 11.1111 7.95897 11.3235 7.92629 11.5196C7.80374 12.2631 7.39524 12.9248 6.96224 13.4477C6.93773 13.4722 6.91322 13.5049 6.88871 13.5294C6.5374 13.9297 6.18609 14.2483 5.941 14.4363C5.92466 14.4444 5.90832 14.4608 5.90015 14.4689C6.43936 16.1683 8.49819 17.4428 10.4018 17.8268C10.6796 16.6095 10.8675 15.3758 10.6305 14.1095C10.5652 14.0849 10.5325 14.0604 10.5325 14.0441C8.2776 13.3333 8.63707 10.915 9.65832 10.7843C10.026 10.7353 10.2956 10.8251 10.508 10.9559C10.7939 11.1683 11.1044 11.6993 11.1044 11.8546C11.1207 11.4951 11.276 10.9967 11.4639 10.9804C11.6599 10.964 11.856 10.9232 12.0439 10.8497C12.9835 10.5229 13.8413 9.6405 14.6011 8.85619C15.6469 7.77776 16.4966 6.86273 17.1011 7.76959C17.1338 7.81861 17.1665 7.86763 17.191 7.91665C17.91 7.90031 18.2449 8.31697 18.4165 8.74998C18.4165 8.74998 18.4165 8.74998 18.4165 8.75815C18.5554 9.1258 18.5717 9.50161 18.5881 9.59965C18.5881 9.61599 18.5881 9.62416 18.5962 9.62416C18.5799 9.95096 18.539 10.5065 18.5309 11.2255C18.5309 11.5523 18.5635 12.2059 18.539 12.5817C18.5309 12.6961 18.5227 12.8104 18.5145 12.9166C18.5064 12.9738 18.5064 13.031 18.4982 13.08C18.49 13.1291 18.49 13.1863 18.4818 13.2434C18.4737 13.3251 18.4655 13.4068 18.4573 13.4967C18.4492 13.5702 18.441 13.6438 18.4328 13.7173V13.7255C18.4247 13.7827 18.4165 13.8317 18.4083 13.8807C18.2858 14.5343 18.0979 15.2287 17.8282 15.6454C17.289 16.4869 16.8642 17.1977 16.0881 17.5572C15.3201 17.9085 14.4459 17.982 14.4459 17.982C14.4459 17.982 14.691 18.1372 15.2711 18.1699C15.843 18.2026 16.2678 18.031 16.6926 18.1046C17.5995 18.2598 19.1926 18.2598 19.1926 18.2598C20.3854 15.1225 18.3675 14.9755 18.923 11.0376Z" fill="black"/>
<path d="M12.5604 13.4805C12.7892 13.3579 13.0098 13.2272 13.263 13.1618C13.2875 13.1618 13.3039 13.1537 13.3529 13.17C13.5245 13.3007 13.0261 13.6275 12.9362 13.7092C12.9607 13.6765 12.9526 13.6193 12.9117 13.603C12.9036 13.603 12.9036 13.5948 12.8954 13.5948C12.879 13.5948 12.879 13.5948 12.879 13.5948C13.0833 13.5213 13.2875 13.4396 13.4836 13.3416C13.598 13.2926 13.7532 13.1863 13.8758 13.1782C13.9248 13.1782 13.982 13.2272 13.9738 13.2762C13.9656 13.3416 13.9493 13.3661 13.933 13.4069C13.9166 13.4396 13.8839 13.4886 13.8758 13.5213C13.8758 13.5295 13.8676 13.5131 13.8676 13.5131C13.8676 13.5213 13.9166 13.5213 13.9248 13.5131C14.0555 13.4968 14.1944 13.4478 14.3251 13.3988C14.3496 13.3906 14.366 13.4233 14.3415 13.4396C14.2026 13.5295 14.0555 13.6275 13.8758 13.6439C13.7614 13.652 13.7042 13.5458 13.7451 13.4478C13.7614 13.3906 13.8022 13.3252 13.8186 13.2762C13.8186 13.2926 13.8349 13.3171 13.8513 13.3252C13.8676 13.3334 13.8758 13.3252 13.8676 13.3334C13.7859 13.3579 13.6225 13.4478 13.549 13.4805C13.3366 13.5785 13.1323 13.6684 12.9036 13.7337C12.8872 13.7337 12.8872 13.7419 12.8627 13.7337C12.7973 13.7256 12.781 13.6439 12.83 13.603C12.9281 13.5213 13.0424 13.4559 13.1323 13.3743C13.1813 13.3334 13.2385 13.2762 13.2712 13.2272C13.2712 13.2354 13.2794 13.2517 13.2875 13.2599C13.214 13.268 13.067 13.3089 12.9771 13.3497C12.8464 13.3988 12.7075 13.4559 12.5768 13.5131C12.5604 13.5295 12.5359 13.4886 12.5604 13.4805Z" fill="black"/>
<path d="M17.8546 13.4804C17.9281 13.3987 18.2386 13.0066 18.3203 13.2108C18.3203 13.2272 18.3203 13.2435 18.3203 13.2517C18.2876 13.4151 18.1814 13.554 18.0997 13.6929C18.116 13.652 18.0833 13.5948 18.0425 13.5866C18.0261 13.5866 18.018 13.5866 18.0098 13.5866C18.0016 13.5866 18.0098 13.5866 18.018 13.5785C18.1814 13.4723 18.3039 13.3415 18.4673 13.2272C18.5 13.2108 18.5408 13.1863 18.5817 13.2108C18.6225 13.2435 18.6144 13.2925 18.598 13.3252C18.5817 13.3661 18.5653 13.3987 18.549 13.4396C18.5408 13.4478 18.5327 13.4559 18.5163 13.4478C18.5082 13.4478 18.5082 13.4396 18.5082 13.4314C18.5082 13.4151 18.5082 13.3089 18.5082 13.2925C18.5 13.2762 18.5082 13.2844 18.5082 13.2925C18.5082 13.3007 18.5245 13.317 18.5408 13.317C18.549 13.317 18.5653 13.317 18.5653 13.317C18.4265 13.4804 18.2631 13.6357 18.0752 13.7419C18.018 13.7664 17.9526 13.7174 17.9608 13.652C17.9608 13.6438 17.9689 13.6275 17.9771 13.6193C18.0343 13.5376 18.0997 13.4559 18.1487 13.3742C18.1732 13.3334 18.2059 13.2762 18.214 13.2353C18.214 13.2517 18.2467 13.2762 18.2549 13.268C18.1242 13.317 18.0098 13.4232 17.8954 13.5049C17.8627 13.5295 17.8382 13.4968 17.8546 13.4804Z" fill="black"/>
</g>
</svg>
